<?xml version="1.0" encoding="UTF-8"?>
<!DOCTYPE svg PUBLIC "-//W3C//DTD SVG 1.1//EN" "http://www.w3.org/Graphics/SVG/1.1/DTD/svg11.dtd">
<!-- Creator: CorelDRAW 2018 (64 Bit) -->
<svg xmlns="http://www.w3.org/2000/svg" xml:space="preserve" width="2.38862in" height="2.32853in" version="1.1" style="shape-rendering:geometricPrecision; text-rendering:geometricPrecision; image-rendering:optimizeQuality; fill-rule:evenodd; clip-rule:evenodd"
viewBox="0 0 438.91 427.87"
 xmlns:xlink="http://www.w3.org/1999/xlink">
 <defs>
  <style type="text/css">
   <![CDATA[
    .fil0 {fill:#174824}
    .fil1 {fill:white;fill-rule:nonzero}
   ]]>
  </style>
 </defs>
 <g id="Capa_x0020_1">
  <metadata id="CorelCorpID_0Corel-Layer"/>
  <g id="_2407310924976">
   <path class="fil0" d="M219.45 0c121.2,0 219.45,95.78 219.45,213.93 0,118.15 -98.25,213.93 -219.45,213.93 -121.2,0 -219.45,-95.78 -219.45,-213.93 0,-118.15 98.25,-213.93 219.45,-213.93zm-19.58 238.47l0 -74.47c-18.57,-3.77 -32.36,-11.21 -41.09,-22.77 -9.07,-11.56 -15.07,-23.62 -17.8,-36.12 21.83,39.38 62.66,45.11 85,45.11l8.3 -0.77c-16.09,-14.72 -13.1,-32.1 -30.64,-66.42 64.46,0 85.77,42.89 85.77,74.47 0,31.84 -22.34,72.76 -89.54,80.98zm-1.2 144.23c7.7,0 10.79,-5.48 10.79,-11.3 0,-4.71 -2.57,-9.76 -7.79,-15.07 -1.8,-0.94 -1.8,-3 -1.8,-9.24l0 -81.49c12.58,2.23 24.57,3.25 35.87,3.25 95.02,0 133.96,-65.23 133.96,-114.87 0,-20.8 -6.33,-39.63 -19.09,-56.15 -25.85,-33.64 -79.52,-53.67 -164.01,-53.67l-70.7 0 0 302.93c0,5.99 -0.77,7.79 -2.57,9.24 -4.71,5.05 -7.28,10.1 -7.28,14.81 0,5.56 3.34,11.56 11.04,11.56l81.58 0z"/>
   <path class="fil1" d="M195.3 239.8l0 -69.39c-17.31,-3.51 -30.15,-10.45 -38.28,-21.21 -8.45,-10.77 -14.04,-22.01 -16.59,-33.66 20.34,36.69 58.38,42.03 79.19,42.03l7.74 -0.72c-14.99,-13.72 -12.2,-29.91 -28.55,-61.89 60.05,0 79.91,39.96 79.91,69.39 0,29.67 -20.82,67.79 -83.42,75.45zm-1.12 134.38c7.18,0 10.05,-5.1 10.05,-10.53 0,-4.39 -2.39,-9.09 -7.26,-14.04 -1.67,-0.88 -1.67,-2.79 -1.67,-8.61l0 -75.93c11.72,2.07 22.89,3.03 33.42,3.03 88.53,0 124.81,-60.77 124.81,-107.03 0,-19.38 -5.9,-36.93 -17.78,-52.32 -24.09,-31.34 -74.09,-50.01 -152.81,-50.01l-65.88 0 0 282.25c0,5.58 -0.72,7.26 -2.39,8.61 -4.39,4.71 -6.78,9.41 -6.78,13.8 0,5.18 3.11,10.77 10.29,10.77l76.01 0z"/>
  </g>
 </g>
</svg>
