<?xml version="1.0" encoding="UTF-8"?>
<!DOCTYPE svg PUBLIC "-//W3C//DTD SVG 1.1//EN" "http://www.w3.org/Graphics/SVG/1.1/DTD/svg11.dtd">
<!-- Creator: CorelDRAW 2018 (64 Bit) -->
<svg xmlns="http://www.w3.org/2000/svg" xml:space="preserve" width="12.1944in" height="2.59257in" version="1.1" style="shape-rendering:geometricPrecision; text-rendering:geometricPrecision; image-rendering:optimizeQuality; fill-rule:evenodd; clip-rule:evenodd"
viewBox="0 0 8444.07 1795.24"
 xmlns:xlink="http://www.w3.org/1999/xlink">
 <defs>
  <style type="text/css">
   <![CDATA[
    .fil0 {fill:#174824;fill-rule:nonzero}
   ]]>
  </style>
 </defs>
 <g id="Capa_x0020_1">
  <metadata id="CorelCorpID_0Corel-Layer"/>
  <path class="fil0" d="M453.15 938.55l0 -359.71c-89.72,-18.19 -156.29,-54.16 -198.46,-109.98 -43.83,-55.82 -72.77,-114.11 -86,-174.48 105.43,190.19 302.65,217.89 410.57,217.89l40.11 -3.72c-77.73,-71.12 -63.26,-155.05 -148.02,-320.84 311.34,0 414.29,207.14 414.29,359.71 0,153.81 -107.91,351.44 -432.48,391.13zm-5.79 696.68c37.21,0 52.1,-26.46 52.1,-54.58 0,-22.74 -12.4,-47.13 -37.62,-72.77 -8.68,-4.55 -8.68,-14.47 -8.68,-44.65l0 -393.61c60.78,10.75 118.66,15.71 173.24,15.71 458.94,0 647.06,-315.06 647.06,-554.86 0,-100.47 -30.6,-191.43 -92.2,-271.23 -124.87,-162.49 -384.11,-259.24 -792.19,-259.24l-341.52 0 0 1463.23c0,28.94 -3.72,37.62 -12.4,44.65 -22.74,24.39 -35.14,48.79 -35.14,71.53 0,26.88 16.12,55.82 53.34,55.82l394.03 0zm1295.78 160.01c37.62,0 53.34,-29.36 53.34,-55.82 0,-23.15 -11.99,-47.13 -35.14,-71.53 -9.51,-8.27 -11.99,-18.19 -11.99,-48.38l0 -993.13c-88.48,-18.19 -153.81,-54.58 -197.63,-110.39 -44.65,-55.82 -73.6,-113.7 -87.24,-174.48 110.39,196.39 312.58,218.31 414.29,218.31l40.11 -3.72c-79.8,-71.53 -59.13,-146.78 -148.85,-321.26 -58.3,-108.74 -192.67,-175.31 -426.69,-187.71l0 1657.14c0,48.37 42.59,90.96 90.96,90.96l308.85 0zm421.73 -155.05c165.8,0 212.93,-98.4 307.61,-178.2l0 81.04c0,43.83 33.9,90.96 90.55,90.96l306.79 0c38.45,0 53.34,-26.46 53.34,-54.58 0,-22.74 -12.4,-47.13 -35.14,-72.35 -9.92,-4.96 -9.92,-14.89 -9.92,-48.79l0 -508.55c0,-360.95 -191.43,-520.96 -516,-520.96 -215.41,0 -328.28,65.33 -372.94,165.79 -63.26,144.3 -55.82,237.74 -124.87,304.31l40.11 2.48c121.14,0 456.46,-53.34 456.46,-420.49 97.99,14.47 111.63,59.54 111.63,163.73l0 453.98c0,115.36 -67.81,325.81 -152.57,325.81 -85.17,-16.95 -92.2,-104.19 -92.2,-198.46 3.72,-63.26 13.23,-116.18 30.18,-158.77 55.82,-140.58 114.94,-190.19 114.94,-296.86l-3.31 -40.93c-28.12,47.14 -64.5,87.24 -106.67,119.9 -144.3,102.95 -141.82,81.04 -274.95,177.79 -92.2,67.81 -149.26,160.01 -149.26,305.55 4.96,164.56 107.91,307.61 326.22,307.61zm1925.48 -6.2c37.62,0 52.1,-27.7 52.1,-55.82 0,-22.74 -10.75,-47.14 -33.9,-71.12 -8.27,-1.24 -11.99,-12.4 -11.99,-33.08l0 -617.71c0,-61.6 -7.03,-125.69 -20.67,-192.67 -26.46,-129.41 -101.71,-227.4 -261.31,-237.33 -46.31,0 -94.68,12.4 -145.54,35.14 -109.15,54.58 -168.28,126.11 -238.56,188.95l0 -221.61c-202.18,0 -311.34,60.78 -358.47,148.02 -77.73,141.4 -53.34,245.6 -136.03,322.08l55.82 4.96c174.48,0 333.25,-110.39 396.09,-220.79 -48.37,178.2 -169.52,281.15 -363.43,308.85l0 466.38c0,35.14 -1.24,43.83 -11.99,48.79 -23.15,23.98 -35.14,48.37 -35.14,71.12 0,28.12 14.47,55.82 53.34,55.82l308.85 0c48.37,0 90.96,-42.17 90.96,-90.96l0 -426.28c0,-64.08 2.48,-129.41 8.27,-193.91 9.92,-124.45 48.37,-221.61 155.05,-233.6 82.69,0 97.16,116.18 97.16,199.7l0 660.29c5.79,42.59 36.38,84.76 90.55,84.76l308.85 0zm562.3 160.01c37.21,0 52.92,-26.87 52.92,-54.58 0,-23.15 -11.99,-47.13 -34.73,-72.77 -9.92,-4.55 -9.92,-14.47 -9.92,-48.38l0 -1050.19c0,-119.9 18.19,-139.33 112.88,-139.33l0 -151.33 -112.88 0 0 -230.3c-248.08,14.47 -372.94,87.24 -428.76,188.95 -79.8,145.54 -66.57,246.01 -146.78,320.02l40.11 2.48c30.18,0 72.77,-4.96 124.87,-16.13 102.95,-19.02 216.65,-74.83 289.42,-202.18 -13.23,60.78 -42.17,118.66 -86,174.48 -44.65,55.82 -109.98,92.2 -198.46,110.39l0 1077.89c0,43.83 33.9,90.96 90.55,90.96l306.79 0zm414.29 -153.81c165.8,0 212.93,-98.4 307.61,-178.2l0 81.04c0,43.83 33.9,90.96 90.55,90.96l306.79 0c38.45,0 53.34,-26.46 53.34,-54.58 0,-22.74 -12.4,-47.13 -35.14,-72.35 -9.92,-4.96 -9.92,-14.89 -9.92,-48.79l0 -508.55c0,-360.95 -191.43,-520.96 -516,-520.96 -215.41,0 -328.29,65.33 -372.94,165.79 -63.26,144.3 -55.82,237.74 -124.87,304.31l40.11 2.48c121.14,0 456.46,-53.34 456.46,-420.49 97.99,14.47 111.64,59.54 111.64,163.73l0 453.98c0,115.36 -67.81,325.81 -152.57,325.81 -85.17,-16.95 -92.2,-104.19 -92.2,-198.46 3.72,-63.26 13.23,-116.18 30.18,-158.77 55.82,-140.58 114.94,-190.19 114.94,-296.86l-3.31 -40.93c-28.12,47.14 -64.5,87.24 -106.67,119.9 -144.3,102.95 -141.81,81.04 -274.95,177.79 -92.2,67.81 -149.26,160.01 -149.26,305.55 4.96,164.56 107.91,307.61 326.22,307.61zm1248.64 -8.68c208.39,0 468.86,-131.89 468.86,-346.48 0,-77.32 -37.62,-179.03 -129.83,-261.31 -216.65,-176.96 -419.25,-244.77 -419.25,-443.64 0,-50.85 18.19,-91.79 75.25,-96.75 0,379.14 344,418.01 455.63,418.01l40.93 -3.72c-38.86,-38.86 -65.33,-94.68 -78.56,-167.04 -33.91,-157.53 -109.15,-301.82 -402.3,-301.82 -203.42,0 -432.48,121.14 -432.48,320.84 0,326.22 531.71,449.43 531.71,683.45 0,99.23 -102.95,136.86 -139.34,146.36 -10.75,-113.7 -44.65,-198.46 -101.71,-255.52 -56.65,-57.06 -119.9,-94.27 -188.95,-114.94 -69.05,-19.43 -128.17,-31.42 -175.72,-35.14 23.15,124.86 75.25,229.88 154.22,313.82 78.56,88.48 192.26,136.86 341.52,143.88zm564.37 -1129.99c96.75,0 455.63,-40.11 455.63,-414.28l-2.48 -58.3c-488.3,0 -352.68,334.49 -493.26,470.1l40.11 2.48zm386.58 1132.47c38.45,0 54.58,-26.46 54.58,-54.58 0,-22.74 -12.4,-47.13 -36.38,-72.35 -8.68,-7.44 -12.4,-16.13 -12.4,-45.07l0 -1069.62c-56.64,95.92 -191.43,174.48 -401.88,234.02l0 835.6 -1.24 2.48c-1.24,25.64 -4.96,38.86 -11.16,42.59 -23.98,25.22 -36.38,49.61 -36.38,72.35 0,28.12 16.12,54.58 54.58,54.58l390.3 0zm419.25 6.2c165.8,0 212.93,-98.4 307.61,-178.2l0 81.04c0,43.83 33.91,90.96 90.55,90.96l306.79 0c38.45,0 53.34,-26.46 53.34,-54.58 0,-22.74 -12.4,-47.13 -35.14,-72.35 -9.92,-4.96 -9.92,-14.89 -9.92,-48.79l0 -508.55c0,-360.95 -191.43,-520.96 -516,-520.96 -215.41,0 -328.29,65.33 -372.94,165.79 -63.26,144.3 -55.82,237.74 -124.86,304.31l40.11 2.48c121.14,0 456.46,-53.34 456.46,-420.49 97.99,14.47 111.63,59.54 111.63,163.73l0 453.98c0,115.36 -67.81,325.81 -152.57,325.81 -85.17,-16.95 -92.2,-104.19 -92.2,-198.46 3.72,-63.26 13.23,-116.18 30.18,-158.77 55.82,-140.58 114.94,-190.19 114.94,-296.86l-3.31 -40.93c-28.12,47.14 -64.5,87.24 -106.67,119.9 -144.3,102.95 -141.81,81.04 -274.95,177.79 -92.2,67.81 -149.26,160.01 -149.26,305.55 4.96,164.56 107.91,307.61 326.22,307.61z"/>
 </g>
</svg>
