<?xml version="1.0" encoding="UTF-8"?>
<!DOCTYPE svg PUBLIC "-//W3C//DTD SVG 1.1//EN" "http://www.w3.org/Graphics/SVG/1.1/DTD/svg11.dtd">
<!-- Creator: CorelDRAW 2018 (64 Bit) -->
<svg xmlns="http://www.w3.org/2000/svg" xml:space="preserve" width="11.0868in" height="2.98441in" version="1.1" style="shape-rendering:geometricPrecision; text-rendering:geometricPrecision; image-rendering:optimizeQuality; fill-rule:evenodd; clip-rule:evenodd"
viewBox="0 0 9389.95 2527.64"
 xmlns:xlink="http://www.w3.org/1999/xlink">
 <defs>
  <style type="text/css">
   <![CDATA[
    .fil0 {fill:#174824}
    .fil1 {fill:#4F6226}
    .fil5 {fill:#703814}
    .fil2 {fill:#89906F}
    .fil3 {fill:#AC8D76}
    .fil4 {fill:#AFA195}
    .fil6 {fill:black;fill-rule:nonzero}
   ]]>
  </style>
 </defs>
 <g id="Capa_x0020_1">
  <metadata id="CorelCorpID_0Corel-Layer"/>
  <g id="_2025687241440">
   <path class="fil0" d="M1058.69 0c584.7,0 1058.69,473.99 1058.69,1058.69 0,584.7 -473.99,1058.69 -1058.69,1058.69 -584.7,0 -1058.69,-473.99 -1058.69,-1058.69 0,-584.7 473.99,-1058.69 1058.69,-1058.69z"/>
   <path class="fil1" d="M2513.2 0c584.7,0 1058.69,473.99 1058.69,1058.69 0,584.7 -473.99,1058.69 -1058.69,1058.69 -584.7,0 -1058.69,-473.99 -1058.69,-1058.69 0,-584.7 473.99,-1058.69 1058.69,-1058.69z"/>
   <path class="fil2" d="M3967.72 0c584.7,0 1058.69,473.99 1058.69,1058.69 0,584.7 -473.99,1058.69 -1058.69,1058.69 -584.7,0 -1058.69,-473.99 -1058.69,-1058.69 0,-584.7 473.99,-1058.69 1058.69,-1058.69z"/>
   <path class="fil3" d="M5422.23 0c584.7,0 1058.69,473.99 1058.69,1058.69 0,584.7 -473.99,1058.69 -1058.69,1058.69 -584.7,0 -1058.69,-473.99 -1058.69,-1058.69 0,-584.7 473.99,-1058.69 1058.69,-1058.69z"/>
   <path class="fil4" d="M6876.75 0c584.7,0 1058.69,473.99 1058.69,1058.69 0,584.7 -473.99,1058.69 -1058.69,1058.69 -584.7,0 -1058.69,-473.99 -1058.69,-1058.69 0,-584.7 473.99,-1058.69 1058.69,-1058.69z"/>
   <path class="fil5" d="M8331.26 0c584.7,0 1058.69,473.99 1058.69,1058.69 0,584.7 -473.99,1058.69 -1058.69,1058.69 -584.7,0 -1058.69,-473.99 -1058.69,-1058.69 0,-584.7 473.99,-1058.69 1058.69,-1058.69z"/>
   <path class="fil6" d="M1971.69 2524.25l16.94 -51.1 31.9 0 4.52 -14.96 -31.34 0 18.92 -56.18 30.77 0 4.23 -14.68 -30.21 0 17.22 -51.38 -17.22 0 -16.94 51.38 -31.05 0 16.94 -51.38 -17.51 0 -16.94 51.38 -31.05 0 -4.52 14.68 30.49 0 -18.63 56.18 -30.21 0 -4.8 14.96 29.92 0 -17.22 51.1 17.5 0 16.94 -51.1 31.34 0 -17.22 51.1 17.22 0zm4.8 -66.06l-31.05 0 18.63 -56.18 31.05 0 -18.63 56.18zm199.04 66.06l0 -47.71 26.54 0 0 -20.61 -26.54 0 0 -119.99 -32.18 0 -80.74 121.11 0 19.48 89.5 0 0 47.71 23.43 0zm-23.43 -68.32l-66.06 0 66.06 -98.25 0 98.25zm107.28 68.32l0 -117.73 27.67 0 0 -18.63 -27.67 0 0 -10.45c0,-17.22 7.62,-26.82 21.46,-26.82 7.06,0 12.42,2.82 16.94,6.78l8.75 -13.83c-8.47,-7.91 -18.07,-10.45 -28.8,-10.45 -24.28,0 -39.52,16.38 -39.52,44.32l0 10.45 -22.58 0 0 18.63 22.58 0 0 117.73 21.17 0zm118.57 3.39c41.22,0 66.07,-28.8 66.07,-61.54 0,-40.09 -27.67,-60.13 -61.55,-60.13 -24.28,0 -45.17,16.37 -53.36,29.36 -0.28,-2.54 -0.28,-4.8 -0.28,-7.34 0,-36.99 16.66,-73.97 53.08,-73.97 19.76,0 30.77,7.9 40.37,19.2l11.86 -17.5c-11.57,-13.27 -27.95,-22.59 -52.23,-22.59 -52.79,0 -76.51,46.3 -76.51,97.4 0,51.1 20.04,97.12 72.55,97.12zm-0.85 -20.89c-32.75,0 -45.17,-28.8 -47.43,-52.23 10.45,-16.66 28.52,-28.23 47.15,-28.23 24.28,0 43.47,12.98 43.47,40.65 0,18.07 -14.11,39.81 -43.19,39.81zm225.29 17.5l0 -20.89 -92.32 0c52.51,-41.5 91.47,-76.51 91.47,-114.91 0,-37.55 -31.9,-55.34 -63.24,-55.34 -26.54,0 -51.1,10.73 -65.5,29.64l14.4 14.96c11.01,-14.12 28.52,-23.71 51.1,-23.71 19.48,0 39.24,10.44 39.24,34.44 0,32.47 -36.7,63.8 -104.46,117.16l0 18.63 129.3 0zm166 0l0 -20.89 -92.32 0c52.51,-41.5 91.47,-76.51 91.47,-114.91 0,-37.55 -31.9,-55.34 -63.24,-55.34 -26.54,0 -51.1,10.73 -65.5,29.64l14.4 14.96c11.01,-14.12 28.52,-23.71 51.1,-23.71 19.48,0 39.24,10.44 39.24,34.44 0,32.47 -36.7,63.8 -104.46,117.16l0 18.63 129.3 0zm108.41 3.39c41.22,0 66.07,-28.8 66.07,-61.54 0,-40.09 -27.67,-60.13 -61.55,-60.13 -24.28,0 -45.17,16.37 -53.36,29.36 -0.28,-2.54 -0.28,-4.8 -0.28,-7.34 0,-36.99 16.66,-73.97 53.08,-73.97 19.76,0 30.77,7.9 40.37,19.2l11.86 -17.5c-11.57,-13.27 -27.95,-22.59 -52.23,-22.59 -52.79,0 -76.51,46.3 -76.51,97.4 0,51.1 20.04,97.12 72.55,97.12zm-0.85 -20.89c-32.75,0 -45.17,-28.8 -47.43,-52.23 10.45,-16.66 28.52,-28.23 47.15,-28.23 24.28,0 43.47,12.98 43.47,40.65 0,18.07 -14.11,39.81 -43.19,39.81z"/>
   <path class="fil6" d="M489.53 2524.25l16.94 -51.1 31.9 0 4.52 -14.96 -31.34 0 18.92 -56.18 30.77 0 4.23 -14.68 -30.21 0 17.22 -51.38 -17.22 0 -16.94 51.38 -31.05 0 16.94 -51.38 -17.51 0 -16.94 51.38 -31.05 0 -4.52 14.68 30.49 0 -18.63 56.18 -30.21 0 -4.8 14.96 29.92 0 -17.22 51.1 17.5 0 16.94 -51.1 31.34 0 -17.22 51.1 17.22 0zm4.8 -66.06l-31.05 0 18.63 -56.18 31.05 0 -18.63 56.18zm150.76 66.06l0 -188.31 -20.61 0 -47.15 48.56 14.11 14.4 30.21 -31.9 0 157.25 23.43 0zm82.15 0l77.07 -172.21 0 -16.09 -128.45 0 0 20.89 101.35 0 -75.94 167.42 25.97 0zm207.22 0l0 -47.71 26.54 0 0 -20.61 -26.54 0 0 -119.99 -32.18 0 -80.74 121.11 0 19.48 89.5 0 0 47.71 23.43 0zm-23.43 -68.32l-66.06 0 66.06 -98.25 0 98.25zm141.16 71.71c36.98,0 67.48,-19.2 67.48,-51.1 0,-25.13 -21.46,-42.35 -44.89,-49.4 21.74,-6.21 42.07,-20.33 42.07,-45.17 0,-33.88 -33.6,-48.84 -64.65,-48.84 -31.34,0 -64.37,14.96 -64.37,48.84 0,24.84 20.04,38.96 41.78,45.17 -23.43,7.06 -44.89,24.28 -44.89,49.4 0,32.18 30.21,51.1 67.47,51.1zm0 -110.1c-11.29,-1.98 -40.94,-9.6 -40.94,-32.47 0,-19.48 18.07,-31.05 40.94,-31.05 22.58,0 40.94,11.57 40.94,31.05 0,22.87 -29.36,30.49 -40.94,32.47zm0 89.21c-23.43,0 -44.04,-12.42 -44.04,-32.75 0,-24.56 32.47,-35.01 44.04,-36.42 11.57,1.41 43.76,11.86 43.76,36.42 0,20.33 -20.61,32.75 -43.76,32.75zm226.42 17.5l0 -20.89 -92.32 0c52.51,-41.5 91.47,-76.51 91.47,-114.91 0,-37.55 -31.9,-55.34 -63.24,-55.34 -26.54,0 -51.1,10.73 -65.5,29.64l14.4 14.96c11.01,-14.12 28.52,-23.71 51.1,-23.71 19.48,0 39.24,10.44 39.24,34.44 0,32.47 -36.7,63.8 -104.46,117.16l0 18.63 129.3 0zm143.41 0l0 -47.71 26.54 0 0 -20.61 -26.54 0 0 -119.99 -32.18 0 -80.74 121.11 0 19.48 89.5 0 0 47.71 23.43 0zm-23.43 -68.32l-66.06 0 66.06 -98.25 0 98.25z"/>
   <path class="fil6" d="M7900.34 2524.25l16.94 -51.1 31.9 0 4.52 -14.96 -31.34 0 18.92 -56.18 30.77 0 4.23 -14.68 -30.21 0 17.22 -51.38 -17.22 0 -16.94 51.38 -31.05 0 16.94 -51.38 -17.51 0 -16.94 51.38 -31.05 0 -4.52 14.68 30.49 0 -18.63 56.18 -30.21 0 -4.8 14.96 29.92 0 -17.22 51.1 17.5 0 16.94 -51.1 31.34 0 -17.22 51.1 17.22 0zm4.8 -66.06l-31.05 0 18.63 -56.18 31.05 0 -18.63 56.18zm137.21 66.06l77.07 -172.21 0 -16.09 -128.45 0 0 20.89 101.35 0 -75.94 167.42 25.97 0zm171.65 3.39c51.38,0 71.99,-51.66 71.99,-97.4 0,-46.02 -20.61,-97.12 -71.99,-97.12 -51.66,0 -71.99,51.1 -71.99,97.12 0,45.74 20.33,97.4 71.99,97.4zm0 -20.89c-35.86,0 -47.99,-38.96 -47.99,-76.51 0,-37.55 12.14,-76.23 47.99,-76.23 35.86,0 47.99,38.68 47.99,76.23 0,37.55 -12.14,76.51 -47.99,76.51zm161.48 20.89c41.5,0 66.63,-22.87 66.63,-54.2 0,-30.21 -26.26,-44.89 -43.48,-46.3 17.79,-3.11 40.65,-16.66 40.65,-43.76 0,-31.9 -27.67,-50.25 -63.8,-50.25 -29.08,0 -50.82,12.7 -64.37,29.08l12.99 14.68c13.83,-14.96 29.08,-22.87 49.69,-22.87 22.87,0 42.07,11.29 42.07,32.18 0,21.74 -20.05,31.05 -43.76,31.05 -7.62,0 -16.37,0 -19.48,-0.28l0 21.45c2.82,-0.28 11.58,-0.28 19.48,-0.28 27.67,0 46.87,9.88 46.87,33.31 0,21.74 -16.66,35.29 -44.04,35.29 -22.3,0 -41.5,-10.16 -52.51,-24.84l-13.83 14.68c11.58,16.94 35.01,31.05 66.91,31.05zm164.31 0c36.98,0 67.48,-19.2 67.48,-51.1 0,-25.13 -21.46,-42.35 -44.89,-49.4 21.74,-6.21 42.07,-20.33 42.07,-45.17 0,-33.88 -33.6,-48.84 -64.65,-48.84 -31.34,0 -64.37,14.96 -64.37,48.84 0,24.84 20.04,38.96 41.78,45.17 -23.43,7.06 -44.89,24.28 -44.89,49.4 0,32.18 30.21,51.1 67.47,51.1zm0 -110.1c-11.29,-1.98 -40.94,-9.6 -40.94,-32.47 0,-19.48 18.07,-31.05 40.94,-31.05 22.58,0 40.94,11.57 40.94,31.05 0,22.87 -29.36,30.49 -40.94,32.47zm0 89.21c-23.43,0 -44.04,-12.42 -44.04,-32.75 0,-24.56 32.47,-35.01 44.04,-36.42 11.57,1.41 43.76,11.86 43.76,36.42 0,20.33 -20.61,32.75 -43.76,32.75zm155.56 17.5l0 -188.31 -20.61 0 -47.15 48.56 14.11 14.4 30.21 -31.9 0 157.25 23.43 0zm143.98 0l0 -47.71 26.54 0 0 -20.61 -26.54 0 0 -119.99 -32.18 0 -80.74 121.11 0 19.48 89.5 0 0 47.71 23.43 0zm-23.43 -68.32l-66.06 0 66.06 -98.25 0 98.25z"/>
   <path class="fil6" d="M6418.17 2524.25l16.94 -51.1 31.9 0 4.52 -14.96 -31.34 0 18.92 -56.18 30.77 0 4.23 -14.68 -30.21 0 17.22 -51.38 -17.22 0 -16.94 51.38 -31.05 0 16.94 -51.38 -17.51 0 -16.94 51.38 -31.05 0 -4.52 14.68 30.49 0 -18.63 56.18 -30.21 0 -4.8 14.96 29.92 0 -17.22 51.1 17.5 0 16.94 -51.1 31.34 0 -17.22 51.1 17.22 0zm4.8 -66.06l-31.05 0 18.63 -56.18 31.05 0 -18.63 56.18zm204.68 66.06l0 -93.73c0,-33.03 -23.99,-46.02 -52.79,-46.02 -22.3,0 -39.81,7.34 -54.49,22.58l9.88 14.68c12.14,-12.99 25.41,-18.92 41.78,-18.92 19.76,0 34.44,10.45 34.44,28.8l0 24.56c-11.01,-12.7 -26.54,-18.63 -45.17,-18.63 -23.15,0 -47.71,14.4 -47.71,44.89 0,29.64 24.56,45.17 47.71,45.17 18.35,0 33.88,-6.49 45.17,-18.92l0 15.53 21.17 0zm-58.72 -11.86c-19.76,0 -33.6,-12.42 -33.6,-29.64 0,-17.5 13.83,-29.93 33.6,-29.93 14.96,0 29.36,5.65 37.55,16.94l0 25.69c-8.19,11.29 -22.58,16.94 -37.55,16.94zm128.17 11.86l0 -117.73 27.67 0 0 -18.63 -27.67 0 0 -10.45c0,-17.22 7.62,-26.82 21.46,-26.82 7.06,0 12.42,2.82 16.94,6.78l8.75 -13.83c-8.47,-7.91 -18.07,-10.45 -28.8,-10.45 -24.28,0 -39.52,16.38 -39.52,44.32l0 10.45 -22.58 0 0 18.63 22.58 0 0 117.73 21.17 0zm159.23 0l0 -93.73c0,-33.03 -23.99,-46.02 -52.79,-46.02 -22.3,0 -39.81,7.34 -54.49,22.58l9.88 14.68c12.14,-12.99 25.41,-18.92 41.78,-18.92 19.76,0 34.44,10.45 34.44,28.8l0 24.56c-11.01,-12.7 -26.54,-18.63 -45.17,-18.63 -23.15,0 -47.71,14.4 -47.71,44.89 0,29.64 24.56,45.17 47.71,45.17 18.35,0 33.88,-6.49 45.17,-18.92l0 15.53 21.17 0zm-58.72 -11.86c-19.76,0 -33.6,-12.42 -33.6,-29.64 0,-17.5 13.83,-29.93 33.6,-29.93 14.96,0 29.36,5.65 37.55,16.94l0 25.69c-8.19,11.29 -22.58,16.94 -37.55,16.94zm153.58 11.86l0 -188.31 -20.61 0 -47.15 48.56 14.11 14.4 30.21 -31.9 0 157.25 23.43 0zm97.96 3.1c52.79,0 76.51,-46.3 76.51,-97.12 0,-51.38 -20.04,-97.4 -72.84,-97.4 -40.94,0 -65.78,29.08 -65.78,61.54 0,40.09 27.95,60.13 61.83,60.13 23.99,0 44.89,-16.37 53.07,-29.36 0.28,2.54 0.28,5.08 0.28,7.62 0,35.57 -14.96,73.68 -53.08,73.68 -19.48,0 -30.77,-7.91 -40.37,-19.2l-11.86 17.5c11.86,13.55 28.23,22.58 52.23,22.58zm5.08 -93.16c-24.28,0 -43.47,-12.98 -43.47,-40.65 0,-17.79 14.4,-39.81 43.19,-39.81 32.75,0 45.17,29.08 47.15,52.51 -9.88,16.66 -28.23,27.95 -46.87,27.95zm170.8 93.45c37.83,0 66.91,-23.71 66.91,-62.11 0,-38.68 -28.52,-60.13 -59.85,-60.13 -18.91,0 -35.01,7.91 -44.04,16.94l0 -65.5 91.75 0 0 -20.89 -115.19 0 0 101.63 17.22 5.93c12.7,-12.42 26.82,-17.79 43.47,-17.79 25.41,0 43.19,15.81 43.19,40.65 0,22.87 -17.79,40.37 -43.47,40.37 -23.15,0 -39.53,-9.04 -51.95,-24.84l-14.4 15.53c14.11,18.63 34.44,30.21 66.35,30.21z"/>
   <path class="fil6" d="M4936.01 2524.25l16.94 -51.1 31.9 0 4.52 -14.96 -31.34 0 18.92 -56.18 30.77 0 4.23 -14.68 -30.21 0 17.22 -51.38 -17.22 0 -16.94 51.38 -31.05 0 16.94 -51.38 -17.51 0 -16.94 51.38 -31.05 0 -4.52 14.68 30.49 0 -18.63 56.18 -30.21 0 -4.8 14.96 29.92 0 -17.22 51.1 17.5 0 16.94 -51.1 31.34 0 -17.22 51.1 17.22 0zm4.8 -66.06l-31.05 0 18.63 -56.18 31.05 0 -18.63 56.18zm204.68 66.06l0 -93.73c0,-33.03 -23.99,-46.02 -52.79,-46.02 -22.3,0 -39.81,7.34 -54.49,22.58l9.88 14.68c12.14,-12.99 25.41,-18.92 41.78,-18.92 19.76,0 34.44,10.45 34.44,28.8l0 24.56c-11.01,-12.7 -26.54,-18.63 -45.17,-18.63 -23.15,0 -47.71,14.4 -47.71,44.89 0,29.64 24.56,45.17 47.71,45.17 18.35,0 33.88,-6.49 45.17,-18.92l0 15.53 21.17 0zm-58.72 -11.86c-19.76,0 -33.6,-12.42 -33.6,-29.64 0,-17.5 13.83,-29.93 33.6,-29.93 14.96,0 29.36,5.65 37.55,16.94l0 25.69c-8.19,11.29 -22.58,16.94 -37.55,16.94zm161.2 15.25c24.84,0 39.52,-10.16 49.97,-23.71l-14.11 -12.99c-9.04,12.14 -20.61,17.79 -34.72,17.79 -29.08,0 -47.15,-22.58 -47.15,-52.79 0,-30.21 18.07,-52.51 47.15,-52.51 14.11,0 25.69,5.36 34.72,17.79l14.11 -12.99c-10.45,-13.55 -25.13,-23.71 -49.97,-23.71 -40.65,0 -68.04,31.05 -68.04,71.43 0,40.65 27.39,71.71 68.04,71.71zm140.59 0c36.98,0 67.48,-19.2 67.48,-51.1 0,-25.13 -21.46,-42.35 -44.89,-49.4 21.74,-6.21 42.07,-20.33 42.07,-45.17 0,-33.88 -33.6,-48.84 -64.65,-48.84 -31.34,0 -64.37,14.96 -64.37,48.84 0,24.84 20.04,38.96 41.78,45.17 -23.43,7.06 -44.89,24.28 -44.89,49.4 0,32.18 30.21,51.1 67.47,51.1zm0 -110.1c-11.29,-1.98 -40.94,-9.6 -40.94,-32.47 0,-19.48 18.07,-31.05 40.94,-31.05 22.58,0 40.94,11.57 40.94,31.05 0,22.87 -29.36,30.49 -40.94,32.47zm0 89.21c-23.43,0 -44.04,-12.42 -44.04,-32.75 0,-24.56 32.47,-35.01 44.04,-36.42 11.57,1.41 43.76,11.86 43.76,36.42 0,20.33 -20.61,32.75 -43.76,32.75zm223.03 17.5l0 -188.31 -21.18 0 0 72.56c-11.01,-14.96 -27.67,-24 -46.02,-24 -35.86,0 -60.7,28.23 -60.7,71.71 0,44.32 25.13,71.43 60.7,71.43 19.2,0 35.85,-9.88 46.02,-23.71l0 20.33 21.18 0zm-62.11 -15.53c-27.39,0 -43.76,-22.3 -43.76,-52.51 0,-30.21 16.38,-52.79 43.76,-52.79 16.94,0 33.31,10.16 40.93,22.02l0 61.83c-7.62,11.86 -23.99,21.45 -40.93,21.45zm143.42 15.53l77.07 -172.21 0 -16.09 -128.45 0 0 20.89 101.35 0 -75.94 167.42 25.97 0zm172.21 3.39c41.22,0 66.07,-28.8 66.07,-61.54 0,-40.09 -27.67,-60.13 -61.55,-60.13 -24.28,0 -45.17,16.37 -53.36,29.36 -0.28,-2.54 -0.28,-4.8 -0.28,-7.34 0,-36.99 16.66,-73.97 53.08,-73.97 19.76,0 30.77,7.9 40.37,19.2l11.86 -17.5c-11.57,-13.27 -27.95,-22.59 -52.23,-22.59 -52.79,0 -76.51,46.3 -76.51,97.4 0,51.1 20.04,97.12 72.55,97.12zm-0.85 -20.89c-32.75,0 -45.17,-28.8 -47.43,-52.23 10.45,-16.66 28.52,-28.23 47.15,-28.23 24.28,0 43.47,12.98 43.47,40.65 0,18.07 -14.11,39.81 -43.19,39.81z"/>
   <path class="fil6" d="M3453.85 2524.25l16.94 -51.1 31.9 0 4.52 -14.96 -31.34 0 18.92 -56.18 30.77 0 4.23 -14.68 -30.21 0 17.22 -51.38 -17.22 0 -16.94 51.38 -31.05 0 16.94 -51.38 -17.51 0 -16.94 51.38 -31.05 0 -4.52 14.68 30.49 0 -18.63 56.18 -30.21 0 -4.8 14.96 29.92 0 -17.22 51.1 17.5 0 16.94 -51.1 31.34 0 -17.22 51.1 17.22 0zm4.8 -66.06l-31.05 0 18.63 -56.18 31.05 0 -18.63 56.18zm159.23 69.45c36.98,0 67.48,-19.2 67.48,-51.1 0,-25.13 -21.46,-42.35 -44.89,-49.4 21.74,-6.21 42.07,-20.33 42.07,-45.17 0,-33.88 -33.6,-48.84 -64.65,-48.84 -31.34,0 -64.37,14.96 -64.37,48.84 0,24.84 20.04,38.96 41.78,45.17 -23.43,7.06 -44.89,24.28 -44.89,49.4 0,32.18 30.21,51.1 67.47,51.1zm0 -110.1c-11.29,-1.98 -40.94,-9.6 -40.94,-32.47 0,-19.48 18.07,-31.05 40.94,-31.05 22.58,0 40.94,11.57 40.94,31.05 0,22.87 -29.36,30.49 -40.94,32.47zm0 89.21c-23.43,0 -44.04,-12.42 -44.04,-32.75 0,-24.56 32.47,-35.01 44.04,-36.42 11.57,1.41 43.76,11.86 43.76,36.42 0,20.33 -20.61,32.75 -43.76,32.75zm157.82 20.61c52.79,0 76.51,-46.3 76.51,-97.12 0,-51.38 -20.04,-97.4 -72.84,-97.4 -40.94,0 -65.78,29.08 -65.78,61.54 0,40.09 27.95,60.13 61.83,60.13 23.99,0 44.89,-16.37 53.07,-29.36 0.28,2.54 0.28,5.08 0.28,7.62 0,35.57 -14.96,73.68 -53.08,73.68 -19.48,0 -30.77,-7.91 -40.37,-19.2l-11.86 17.5c11.86,13.55 28.23,22.58 52.23,22.58zm5.08 -93.16c-24.28,0 -43.47,-12.98 -43.47,-40.65 0,-17.79 14.4,-39.81 43.19,-39.81 32.75,0 45.17,29.08 47.15,52.51 -9.88,16.66 -28.23,27.95 -46.87,27.95zm161.77 93.16c52.79,0 76.51,-46.3 76.51,-97.12 0,-51.38 -20.04,-97.4 -72.84,-97.4 -40.94,0 -65.78,29.08 -65.78,61.54 0,40.09 27.95,60.13 61.83,60.13 23.99,0 44.89,-16.37 53.07,-29.36 0.28,2.54 0.28,5.08 0.28,7.62 0,35.57 -14.96,73.68 -53.08,73.68 -19.48,0 -30.77,-7.91 -40.37,-19.2l-11.86 17.5c11.86,13.55 28.23,22.58 52.23,22.58zm5.08 -93.16c-24.28,0 -43.47,-12.98 -43.47,-40.65 0,-17.79 14.4,-39.81 43.19,-39.81 32.75,0 45.17,29.08 47.15,52.51 -9.88,16.66 -28.23,27.95 -46.87,27.95zm172.21 93.45c51.38,0 71.99,-51.66 71.99,-97.4 0,-46.02 -20.61,-97.12 -71.99,-97.12 -51.66,0 -71.99,51.1 -71.99,97.12 0,45.74 20.33,97.4 71.99,97.4zm0 -20.89c-35.86,0 -47.99,-38.96 -47.99,-76.51 0,-37.55 12.14,-76.23 47.99,-76.23 35.86,0 47.99,38.68 47.99,76.23 0,37.55 -12.14,76.51 -47.99,76.51zm173.34 20.89c41.22,0 66.07,-28.8 66.07,-61.54 0,-40.09 -27.67,-60.13 -61.55,-60.13 -24.28,0 -45.17,16.37 -53.36,29.36 -0.28,-2.54 -0.28,-4.8 -0.28,-7.34 0,-36.99 16.66,-73.97 53.08,-73.97 19.76,0 30.77,7.9 40.37,19.2l11.86 -17.5c-11.57,-13.27 -27.95,-22.59 -52.23,-22.59 -52.79,0 -76.51,46.3 -76.51,97.4 0,51.1 20.04,97.12 72.55,97.12zm-0.85 -20.89c-32.75,0 -45.17,-28.8 -47.43,-52.23 10.45,-16.66 28.52,-28.23 47.15,-28.23 24.28,0 43.47,12.98 43.47,40.65 0,18.07 -14.11,39.81 -43.19,39.81zm129.02 17.5l0 -117.73 27.67 0 0 -18.63 -27.67 0 0 -10.45c0,-17.22 7.62,-26.82 21.46,-26.82 7.06,0 12.42,2.82 16.94,6.78l8.75 -13.83c-8.47,-7.91 -18.07,-10.45 -28.8,-10.45 -24.28,0 -39.52,16.38 -39.52,44.32l0 10.45 -22.58 0 0 18.63 22.58 0 0 117.73 21.17 0z"/>
  </g>
 </g>
</svg>
