<?xml version="1.0" encoding="UTF-8"?>
<!DOCTYPE svg PUBLIC "-//W3C//DTD SVG 1.1//EN" "http://www.w3.org/Graphics/SVG/1.1/DTD/svg11.dtd">
<!-- Creator: CorelDRAW 2018 (64 Bit) -->
<svg xmlns="http://www.w3.org/2000/svg" xml:space="preserve" width="8.29744in" height="3.80359in" version="1.1" style="shape-rendering:geometricPrecision; text-rendering:geometricPrecision; image-rendering:optimizeQuality; fill-rule:evenodd; clip-rule:evenodd"
viewBox="0 0 6613.6 3031.72"
 xmlns:xlink="http://www.w3.org/1999/xlink">
 <defs>
  <style type="text/css">
   <![CDATA[
    .fil1 {fill:black;fill-rule:nonzero}
    .fil0 {fill:#4F6226;fill-rule:nonzero}
   ]]>
  </style>
 </defs>
 <g id="Capa_x0020_1">
  <metadata id="CorelCorpID_0Corel-Layer"/>
  <path class="fil0" d="M211.63 14.16l-141.64 506.57c-14.17,53.32 -51.66,53.32 -69.99,53.32l0 20 149.14 0 0 -20c-22.49,0 -64.99,0 -49.99,-54.99l31.66 -116.64 170.8 0 30 104.98c19.16,66.66 -25.83,66.66 -41.66,66.66l0 20 201.63 0 0 -20c-21.66,0 -50.82,0 -69.15,-64.15l-147.47 -509.91 -63.32 14.16zm82.49 363.27l-156.64 0 76.65 -280.78 79.99 280.78zm309.94 229.13c44.16,0 80.82,-23.33 103.31,-65.82l1.67 0c1.67,38.33 24.99,62.49 66.66,62.49 24.99,0 44.99,-9.17 64.15,-31.66l-9.17 -14.16c-8.33,5.83 -15,8.33 -23.33,8.33 -12.5,0 -24.99,-5.83 -24.99,-32.49l0 -221.63c0,-70.82 -44.16,-108.31 -126.64,-108.31 -46.66,0 -99.98,15.83 -137.48,39.16 5,30.83 14.16,62.49 29.99,89.98l10.83 -3.33c18.33,-71.65 49.99,-104.15 91.65,-104.15 34.16,0 52.49,25.83 52.49,79.15l0 66.66 -67.49 19.16c-88.31,24.16 -124.14,67.49 -124.14,127.47 0,53.32 36.66,89.15 92.48,89.15zm33.33 -44.99c-29.99,0 -49.99,-24.99 -49.99,-64.15 0,-45.83 23.33,-76.65 73.32,-92.48l42.49 -13.33 0 123.31c-18.33,31.66 -39.16,46.66 -65.82,46.66z"/>
  <path class="fil1" d="M91.13 1050.55c28.96,0 53.14,-12.22 69.61,-30.56l0 -64.03 -82.9 0 0 19.66 60.84 0 0 36.13c-8.77,8.77 -26.3,19.13 -47.56,19.13 -38.79,0 -68.28,-30.29 -68.28,-72.27 0,-42.24 29.49,-72 68.28,-72 21.25,0 40.12,10.1 51.28,24.44l17.54 -10.89c-15.68,-19.4 -37.46,-33.21 -68.81,-33.21 -50.48,0 -91.13,36.67 -91.13,91.66 0,55 40.65,91.93 91.13,91.93zm204.85 -3.45l0 -88.21c0,-31.09 -22.58,-43.31 -49.68,-43.31 -20.99,0 -37.46,6.91 -51.28,21.25l9.3 13.82c11.43,-12.22 23.91,-17.8 39.32,-17.8 18.6,0 32.41,9.83 32.41,27.1l0 23.11c-10.36,-11.96 -24.97,-17.54 -42.51,-17.54 -21.79,0 -44.9,13.55 -44.9,42.24 0,27.9 23.11,42.51 44.9,42.51 17.27,0 31.88,-6.11 42.51,-17.8l0 14.61 19.93 0zm-55.26 -11.16c-18.6,0 -31.62,-11.69 -31.62,-27.9 0,-16.47 13.02,-28.16 31.62,-28.16 14.08,0 27.63,5.32 35.33,15.94l0 24.18c-7.7,10.63 -21.25,15.94 -35.33,15.94zm115.04 11.16l0 -177.22 -19.93 0 0 177.22 19.93 0zm140.02 0l0 -88.21c0,-31.09 -22.58,-43.31 -49.68,-43.31 -20.99,0 -37.46,6.91 -51.28,21.25l9.3 13.82c11.43,-12.22 23.91,-17.8 39.32,-17.8 18.6,0 32.41,9.83 32.41,27.1l0 23.11c-10.36,-11.96 -24.97,-17.54 -42.51,-17.54 -21.79,0 -44.9,13.55 -44.9,42.24 0,27.9 23.11,42.51 44.9,42.51 17.27,0 31.88,-6.11 42.51,-17.8l0 14.61 19.93 0zm-55.26 -11.16c-18.6,0 -31.62,-11.69 -31.62,-27.9 0,-16.47 13.02,-28.16 31.62,-28.16 14.08,0 27.63,5.32 35.33,15.94l0 24.18c-7.7,10.63 -21.25,15.94 -35.33,15.94zm208.04 11.16l0 -177.22 -19.93 0 0 68.28c-10.36,-14.08 -26.04,-22.58 -43.31,-22.58 -33.74,0 -57.13,26.57 -57.13,67.48 0,41.71 23.65,67.22 57.13,67.22 18.07,0 33.74,-9.3 43.31,-22.32l0 19.13 19.93 0zm-58.45 -14.61c-25.77,0 -41.18,-20.99 -41.18,-49.42 0,-28.43 15.41,-49.68 41.18,-49.68 15.94,0 31.35,9.56 38.52,20.72l0 58.19c-7.17,11.16 -22.58,20.19 -38.52,20.19zm198.47 14.61l0 -88.21c0,-31.09 -22.58,-43.31 -49.68,-43.31 -20.99,0 -37.46,6.91 -51.28,21.25l9.3 13.82c11.43,-12.22 23.91,-17.8 39.32,-17.8 18.6,0 32.41,9.83 32.41,27.1l0 23.11c-10.36,-11.96 -24.97,-17.54 -42.51,-17.54 -21.79,0 -44.9,13.55 -44.9,42.24 0,27.9 23.11,42.51 44.9,42.51 17.27,0 31.88,-6.11 42.51,-17.8l0 14.61 19.93 0zm-55.26 -11.16c-18.6,0 -31.62,-11.69 -31.62,-27.9 0,-16.47 13.02,-28.16 31.62,-28.16 14.08,0 27.63,5.32 35.33,15.94l0 24.18c-7.7,10.63 -21.25,15.94 -35.33,15.94zm115.04 11.16l0 -177.22 -19.93 0 0 177.22 19.93 0zm49.68 -146.66c7.44,0 13.55,-5.85 13.55,-13.29 0,-7.44 -6.11,-13.55 -13.55,-13.55 -7.17,0 -13.29,6.11 -13.29,13.55 0,7.44 6.11,13.29 13.29,13.29zm10.1 146.66l0 -128.33 -19.93 0 0 128.33 19.93 0zm149.58 43.57c-17,-33.48 -27.63,-64.03 -27.63,-108.13 0,-44.37 10.63,-74.66 27.63,-108.4l-11.96 -9.03c-23.91,32.95 -37.46,74.66 -37.46,117.44 0,42.77 13.55,84.76 37.46,117.44l11.96 -9.3zm154.1 -43.57l-47.82 -72.27c24.18,-2.13 45.96,-19.66 45.96,-51.55 0,-32.68 -23.11,-53.4 -55.53,-53.4l-71.21 0 0 177.22 22.05 0 0 -70.41 35.34 0 45.17 70.41 26.04 0zm-60.05 -89.8l-46.5 0 0 -67.75 46.5 0c20.99,0 35.34,13.82 35.34,33.74 0,19.93 -14.35,34.01 -35.34,34.01zm142.14 92.99c20.99,0 38.26,-6.91 51.01,-19.66l-9.56 -13.02c-10.1,10.36 -24.97,16.21 -39.59,16.21 -27.63,0 -44.64,-20.19 -46.23,-44.37l103.89 0 0 -5.05c0,-38.53 -22.85,-68.81 -61.64,-68.81 -36.67,0 -63.23,30.02 -63.23,67.22 0,40.12 27.37,67.48 65.36,67.48zm39.85 -75.45l-84.22 0c1.06,-19.66 14.61,-42.78 41.98,-42.78 29.23,0 41.98,23.65 42.24,42.78zm103.35 124.34c31.35,0 61.11,-13.29 61.11,-55.79l0 -124.61 -19.93 0 0 19.4c-10.36,-14.08 -25.77,-22.58 -43.04,-22.58 -33.74,0 -57.13,25.51 -57.13,66.69 0,41.45 23.65,66.42 57.13,66.42 18.07,0 33.74,-9.83 43.04,-22.85l0 18.33c0,28.16 -19.93,38.52 -41.18,38.52 -18.33,0 -31.09,-4.78 -41.71,-17.54l-10.1 14.88c15.14,14.88 30.02,19.13 51.81,19.13zm2.92 -68.02c-25.77,0 -41.18,-20.72 -41.18,-48.89 0,-28.43 15.41,-48.88 41.18,-48.88 15.94,0 31.35,9.56 38.26,20.72l0 56.06c-6.91,11.16 -22.32,20.99 -38.26,20.99zm204.58 15.94l0 -128.33 -19.93 0 0 94.32c-7.44,10.36 -22.32,19.39 -37.99,19.39 -17.27,0 -28.69,-6.64 -28.69,-29.22l0 -84.49 -19.93 0 0 90.6c0,27.9 14.08,40.92 40.92,40.92 19.13,0 35.87,-10.1 45.7,-21.25l0 18.07 19.93 0zm59.78 0l0 -177.22 -19.93 0 0 177.22 19.93 0zm140.02 0l0 -88.21c0,-31.09 -22.58,-43.31 -49.68,-43.31 -20.99,0 -37.46,6.91 -51.28,21.25l9.3 13.82c11.43,-12.22 23.91,-17.8 39.32,-17.8 18.6,0 32.41,9.83 32.41,27.1l0 23.11c-10.36,-11.96 -24.97,-17.54 -42.51,-17.54 -21.79,0 -44.9,13.55 -44.9,42.24 0,27.9 23.11,42.51 44.9,42.51 17.27,0 31.88,-6.11 42.51,-17.8l0 14.61 19.93 0zm-55.26 -11.16c-18.6,0 -31.62,-11.69 -31.62,-27.9 0,-16.47 13.02,-28.16 31.62,-28.16 14.08,0 27.63,5.32 35.33,15.94l0 24.18c-7.7,10.63 -21.25,15.94 -35.33,15.94zm115.04 11.16l0 -90.87c5.85,-10.36 22.58,-20.46 34.8,-20.46 3.19,0 5.58,0.26 7.97,0.8l0 -20.46c-17.54,0 -32.41,9.83 -42.77,23.38l0 -20.72 -19.93 0 0 128.33 19.93 0zm188.11 -55.53l0 -17.54 -63.77 0 0 17.54 63.77 0zm178.01 55.53c32.41,0 51.28,-19.4 51.28,-47.82 0,-21.25 -15.68,-40.65 -34.54,-43.57 16.21,-3.45 31.09,-18.33 31.09,-40.65 0,-26.57 -18.87,-45.17 -49.68,-45.17l-78.91 0 0 177.22 80.77 0zm-5.58 -100.43l-53.14 0 0 -57.13 53.14 0c19.93,0 30.55,12.75 30.55,28.7 0,16.2 -10.63,28.43 -30.55,28.43zm1.06 80.77l-54.2 0 0 -61.11 54.2 0c21.79,0 32.95,14.35 32.95,30.56 0,18.86 -12.22,30.56 -32.95,30.56zm146.13 22.85c39.06,0 63.5,-30.29 63.5,-67.48 0,-37.2 -24.44,-67.22 -63.5,-67.22 -39.06,0 -63.5,30.02 -63.5,67.22 0,37.2 24.45,67.48 63.5,67.48zm0 -17.8c-27.37,0 -42.78,-23.38 -42.78,-49.68 0,-26.04 15.41,-49.42 42.78,-49.42 27.36,0 42.51,23.38 42.51,49.42 0,26.3 -15.14,49.68 -42.51,49.68zm115.84 14.61l0 -177.22 -19.93 0 0 177.22 19.93 0zm152.77 0l0 -177.22 -19.93 0 0 68.28c-10.36,-14.08 -26.04,-22.58 -43.31,-22.58 -33.74,0 -57.13,26.57 -57.13,67.48 0,41.71 23.65,67.22 57.13,67.22 18.07,0 33.74,-9.3 43.31,-22.32l0 19.13 19.93 0zm-58.45 -14.61c-25.77,0 -41.18,-20.99 -41.18,-49.42 0,-28.43 15.41,-49.68 41.18,-49.68 15.94,0 31.35,9.56 38.52,20.72l0 58.19c-7.17,11.16 -22.58,20.19 -38.52,20.19zm94.85 67.49c24.18,-32.68 37.73,-74.66 37.73,-117.44 0,-42.77 -13.55,-84.49 -37.73,-117.44l-11.96 9.03c17.27,33.74 27.9,64.03 27.9,108.4 0,44.11 -10.63,74.66 -27.9,108.13l11.96 9.3z"/>
  <g id="_2025677798016">
   <path class="fil1" d="M67.48 1376.78l-45.17 161.53c-4.52,17.01 -16.47,17.01 -22.32,17.01l0 6.38 47.56 0 0 -6.38c-7.17,0 -20.72,0 -15.94,-17.54l10.1 -37.2 54.47 0 9.56 33.48c6.11,21.25 -8.24,21.25 -13.29,21.25l0 6.38 64.3 0 0 -6.38c-6.91,0 -16.2,0 -22.05,-20.46l-47.03 -162.6 -20.19 4.52zm26.3 115.84l-49.95 0 24.44 -89.53 25.51 89.53zm147.19 -30.29c24.97,-5.58 40.65,-21.52 40.65,-43.84 0,-26.84 -19.93,-43.57 -63.5,-43.57l-54.47 0 0 6.37c11.69,0 17.8,7.44 17.8,21.26l0 131.51c0,13.81 -6.11,21.25 -17.8,21.25l0 6.38 56.59 0c47.82,0 72.53,-19.93 72.53,-53.14 0,-25.51 -19.39,-42.51 -51.81,-46.23zm-23.91 -79.44c24.97,0 37.99,14.35 37.99,37.73 0,25.51 -13.02,40.12 -40.38,40.12l-5.58 0 0 -77.85 7.97 0zm-7.97 85.82l12.75 0c27.9,0 43.31,17.54 43.31,44.9 0,26.83 -14.08,40.12 -45.43,40.12l-10.63 0 0 -85.02zm219.46 37.73c-0.53,32.41 -16.74,49.41 -39.32,49.41 -29.22,0 -48.09,-32.41 -48.09,-88.47 0,-55 17.27,-87.94 44.63,-87.94 19.93,0 35.34,18.07 40.39,54.2l6.91 0 0 -62.97 -5.31 0 -7.97 19.66c-9.83,-14.61 -22.58,-19.66 -38.79,-19.66 -35.86,0 -69.34,37.73 -69.34,98.83 0,66.42 33.74,96.18 72.53,96.18 29.76,0 51.01,-20.72 51.28,-59.25l-6.91 0zm74.12 55.26c45.17,0 98.84,-25.51 98.84,-97.77 0,-65.89 -47.82,-89 -95.38,-89l-52.61 0 0 6.37c9.56,0 17.8,5.05 17.8,21.26l0 131.51c0,15.94 -8.24,21.25 -17.8,21.25l0 6.38 49.15 0zm6.64 -178.54c37.2,0 62.43,21.79 62.43,82.63 0,65.09 -27.9,87.67 -64.56,87.67l-8.24 0 0 -170.3 10.36 0zm237.26 130.98l-6.91 -1.86c-9.56,30.29 -18.6,41.45 -53.93,41.45l-23.11 0 0 -83.96 20.19 0c23.38,0 23.38,13.55 23.38,25.77l6.64 0 0 -59.51 -6.64 0c0,11.16 0,26.04 -23.38,26.04l-20.19 0 0 -79.18 16.21 0c31.62,0 40.65,8.24 50.21,38.79l6.64 -1.59 -11.96 -45.17 -106.54 0 0 6.37c5.85,0 17.8,0 17.8,21.52l0 130.72c0,21.78 -12.49,21.78 -17.8,21.78l0 6.38 116.1 0 13.28 -47.56zm83.16 40.38c-19.13,0 -26.83,-8.24 -26.83,-23.38l0 -58.19 20.19 0c19.13,0 23.38,9.03 23.38,25.77l6.91 0 0 -59.51 -6.91 0c0,15.68 -4.52,26.04 -23.38,26.04l-20.19 0 0 -82.36 15.94 0c32.15,0 40.38,7.97 51.01,40.65l6.64 -1.86 -11.69 -46.76 -107.34 0 0 6.37c5.32,0 17.8,0 17.8,21.26l0 131.51c0,21.25 -12.75,21.25 -17.8,21.25l0 6.38 72.27 0 0 -7.17zm163.4 -72.8l0 10.36c0,42.51 -12.22,64.03 -34.01,64.03 -27.1,0 -43.04,-30.55 -43.04,-91.66 0,-52.08 17.8,-85.02 45.96,-85.02 18.6,0 34.01,16.74 39.06,54.2l6.91 0 0 -62.97 -5.31 0 -7.44 20.99c-9.03,-15.14 -22.32,-20.99 -38.79,-20.99 -39.06,0 -69.88,44.9 -69.88,99.63 0,56.06 29.49,95.38 69.61,95.38 26.04,0 41.18,-20.72 44.11,-53.67l7.7 49.68 7.17 0 0 -66.69c0,-11.16 2.39,-14.88 10.36,-14.88l0 -5.58 -65.62 0 0 7.17 33.21 0zm110 73.59c-5.32,0 -17.8,0 -17.8,-21.25l0 -62.7 69.88 0 0 62.7c0,21.25 -12.49,21.25 -17.8,21.25l0 6.38 63.5 0 0 -6.38c-5.31,0 -17.8,0 -17.8,-21.25l0 -131.51c0,-21.26 12.49,-21.26 17.8,-21.26l0 -6.37 -63.5 0 0 6.37c5.32,0 17.8,0 17.8,21.26l0 60.57 -69.88 0 0 -60.57c0,-21.26 12.49,-21.26 17.8,-21.26l0 -6.37 -63.23 0 0 6.37c5.32,0 17.8,0 17.8,21.26l0 131.51c0,21.25 -12.49,21.25 -17.8,21.25l0 6.38 63.23 0 0 -6.38zm181.72 0c-5.31,0 -17.8,0 -17.8,-21.25l0 -131.51c0,-21.26 12.49,-21.26 17.8,-21.26l0 -6.37 -62.7 0 0 6.37c5.32,0 17.8,0 17.8,21.26l0 131.51c0,21.25 -12.49,21.25 -17.8,21.25l0 6.38 62.7 0 0 -6.38zm18.33 52.07c41.98,0 41.98,-30.82 41.98,-47.29l0 -157.55c0,-21.26 12.75,-21.26 18.07,-21.26l0 -6.37 -62.97 0 0 6.37c5.32,0 17.8,0 17.8,21.26l0 164.99c0,11.96 0,30.55 -18.07,30.55 -5.05,0 -9.83,-1.59 -13.29,-3.45l-3.45 7.97c4.52,2.13 12.49,4.78 19.93,4.78zm181.73 -119.82c-6.91,-15.94 -15.67,-24.97 -34.27,-26.04 6.64,-4.25 11.96,-11.16 18.6,-22.32l21.52 -36.66c10.36,-17.01 17.8,-21.26 27.1,-21.26l0 -6.37 -46.23 0 0 6.37c10.36,0 14.88,3.45 14.88,9.03 0,2.92 -0.8,5.58 -3.72,10.63l-21.26 35.86c-11.42,19.4 -19.13,24.71 -31.88,24.71l-6.11 0 0 -58.98c0,-21.26 12.49,-21.26 17.01,-21.26l0 -6.37 -62.17 0 0 6.37c5.85,0 17.8,0 17.8,21.52l0 130.72c0,21.78 -12.49,21.78 -17.8,21.78l0 6.38 65.36 0 0 -6.38c-5.31,0 -20.19,0 -20.19,-21.25l0 -65.09 4.78 0c15.68,0 21.79,5.31 28.16,21.78l18.33 47.82c6.38,17.01 13.02,23.11 35.07,23.11l19.4 0 0 -6.91c-10.63,0 -18.07,-5.05 -24.44,-20.46l-19.93 -46.76zm172.43 22.05l-6.91 -1.33c-9.03,30.56 -18.6,45.43 -53.67,45.43l-14.88 0 0 -151.17c0,-21.26 12.49,-21.26 17.8,-21.26l0 -6.37 -63.23 0 0 6.37c5.32,0 17.8,0 17.8,21.26l0 131.51c0,21.25 -12.49,21.25 -17.8,21.25l0 6.38 108.66 0 12.22 -52.07zm170.57 -104.42c0,-19.39 7.17,-24.18 17.8,-24.18l0 -6.11 -44.9 0 -43.31 121.41 -46.23 -121.41 -42.77 0 0 6.37c10.1,0 17.8,4.52 17.8,20.99l0 131.78c0,21.25 -15.14,21.25 -20.46,21.25l0 6.38 49.95 0 0 -6.38c-6.38,0 -20.99,0 -20.99,-22.32l0 -129.65 49.68 130.45 9.3 -2.12 46.76 -128.86 0 131.25c0,21.25 -12.49,21.25 -17.8,21.25l0 6.38 64.03 0 0 -6.38c-5.58,0 -18.86,0 -18.86,-21.25l0 -128.86zm136.03 -23.91c6.38,0 21.78,0 21.78,21.26l0 110.79 -81.83 -138.42 -41.18 0 0 6.37c6.38,0 17.8,0 17.8,26.84l0 125.93c0,21.25 -13.02,21.25 -18.33,21.25l0 6.38 48.62 0 0 -6.38c-6.64,0 -22.05,0 -22.05,-21.25l0 -127.79 91.66 155.42 13.55 0 0 -159.14c0,-21.26 13.02,-21.26 18.33,-21.26l0 -6.37 -48.35 0 0 6.37zm-1878.38 536.95c39.32,0 73.06,-40.38 73.06,-100.43 0,-58.72 -32.68,-94.85 -72.8,-94.85 -38.79,0 -73.33,40.12 -73.33,98.83 0,59.51 31.88,96.44 73.06,96.44zm0.8 -8.77c-27.1,0 -43.31,-32.41 -43.31,-89.27 0,-56.59 15.41,-89 42.24,-89 26.84,0 43.04,31.88 43.04,90.07 0,57.39 -15.14,88.21 -41.98,88.21zm157.55 -2.92c-7.97,0 -23.38,0 -23.38,-24.18l0 -47.03 5.85 0c44.1,0 71.73,-22.32 71.73,-57.65 0,-32.68 -23.91,-50.48 -67.48,-50.48l-55.53 0 0 6.37c5.32,0 17.8,0 17.8,21.26l0 131.51c0,21.25 -13.02,21.25 -17.8,21.25l0 6.38 68.81 0 0 -7.44zm-14.88 -171.63c28.69,0 42.51,14.61 42.51,44.64 0,31.88 -15.41,48.35 -46.23,48.35l-4.78 0 0 -92.99 8.5 0zm251.34 217.86c-6.38,3.72 -12.75,5.31 -21.25,5.31 -19.4,0 -48.09,-23.11 -72,-23.11 -5.58,0 -9.83,1.06 -13.55,2.39l18.86 -19.66c36.67,-3.72 67.22,-42.77 67.22,-99.9 0,-58.72 -32.68,-94.85 -72.8,-94.85 -38.79,0 -73.33,40.12 -73.33,98.83 0,56.59 28.96,92.72 66.69,95.91l-41.71 45.43 5.58 5.31c10.36,-11.42 18.86,-18.33 31.62,-18.33 23.38,0 53.67,33.74 75.45,33.74 11.96,0 26.04,-14.35 31.88,-28.43l-2.66 -2.66zm-136.3 -132.58c0,-56.59 15.41,-89 42.24,-89 26.84,0 43.04,31.88 43.04,90.07 0,57.39 -15.14,88.21 -41.98,88.21 -27.1,0 -43.31,-32.41 -43.31,-89.27zm243.37 26.3c-6.91,-16.74 -15.67,-24.71 -32.41,-26.04 27.63,-5.85 44.1,-23.11 44.1,-47.56 0,-29.49 -20.99,-45.7 -65.36,-45.7l-57.66 0 0 6.37c5.58,0 17.8,0 17.8,21.26l0 131.25c0,21.52 -12.75,21.52 -17.8,21.52l0 6.38 66.42 0 0 -6.38c-9.3,0 -21.26,0 -21.26,-23.91l0 -58.18 9.03 0c15.14,0 20.72,4.78 26.83,19.92l19.66 49.68c5.58,13.81 14.35,18.86 29.49,18.86l22.32 0 0 -6.38c-11.16,0 -18.07,-6.38 -23.65,-19.93l-17.54 -41.18zm-56.32 -111.85c25.51,0 40.12,15.14 40.12,40.12 0,27.1 -14.08,42.24 -41.18,42.24l-8.77 0 0 -82.36 9.83 0zm167.38 67.48c-19.66,-13.28 -37.99,-25.51 -37.99,-45.7 0,-14.88 11.16,-25.51 28.69,-25.51 20.19,0 37.99,14.88 42.51,46.23l6.64 0 0 -52.87 -6.38 0 -5.58 16.74c-8.24,-12.22 -22.58,-18.07 -37.73,-18.07 -27.63,0 -49.42,19.39 -49.42,45.96 0,30.29 23.11,45.43 45.96,60.58 20.72,13.81 41.18,27.36 41.18,51.54 0,15.94 -10.63,29.22 -30.55,29.22 -22.05,0 -43.84,-16.74 -52.34,-57.66l-6.91 0 0 61.37 6.64 0 7.17 -21.25c9.03,14.35 25.77,25.24 46.23,25.24 29.76,0 50.75,-21.52 50.75,-49.95 0,-33.21 -25.24,-50.22 -48.89,-65.89zm167.38 105.21c-14.88,0 -23.11,-8.5 -23.11,-23.38l0 -148.78 6.38 0c22.85,0 30.02,7.17 42.77,42.78l6.64 -1.59 -10.63 -49.15 -118.5 0 -10.63 49.15 6.64 1.59c12.75,-35.87 19.66,-42.78 42.51,-42.78l6.64 0 0 148.78c0,15.94 -7.44,23.38 -23.11,23.38l0 6.64 74.39 0 0 -6.64zm119.29 10.63c37.2,0 56.32,-20.19 56.32,-59.25l0 -103.88c0,-21.26 16.21,-21.26 19.66,-21.26l0 -6.37 -47.82 0 0 6.37c3.72,0 19.66,0 19.66,21.26l0 104.68c0,31.35 -14.08,48.09 -39.85,48.09 -27.1,0 -40.38,-16.47 -40.38,-50.22l0 -102.55c0,-21.26 12.49,-21.26 17.8,-21.26l0 -6.37 -63.5 0 0 6.37c5.31,0 17.8,0 17.8,21.26l0 98.83c0,43.31 19.92,64.3 60.31,64.3zm186.51 -184.12c12.49,0 21.25,3.19 16.74,20.99l-36.4 133.64 -39.06 -136.03c-3.99,-14.35 4.25,-18.6 15.41,-18.6l0 -6.64 -64.03 0 0 6.64c10.1,0 16.21,3.19 20.19,17.27l48.35 167.65 20.72 -5.31 43.84 -160.21c4.25,-15.41 11.42,-19.4 23.11,-19.4l0 -6.64 -48.88 0 0 6.64zm228.22 -0.27c5.32,0 24.18,0.53 19.66,21.26l-27.89 131.78 -30.29 -131.78c-5.05,-20.72 8.77,-21.26 11.69,-21.26l0 -6.37 -57.39 0 0 6.37c5.58,0 14.08,0.53 18.87,21.26l3.72 16.74 -32.41 115.84 -30.82 -132.58c-4.78,-20.72 11.42,-21.26 16.2,-21.26l0 -6.37 -67.48 0 0 6.37c6.91,0 18.33,0.53 23.11,21.26l39.32 163.66 19.92 -5.05 35.87 -126.47 31.62 131.51 19.93 -5.05 34.27 -158.61c4.25,-20.72 17.01,-21.26 24.44,-21.26l0 -6.37 -52.34 0 0 6.37zm174.02 21.52c7.97,-14.08 14.61,-21.25 25.51,-21.25l0 -6.64 -46.76 0 0 5.84c14.61,0 20.46,8.77 12.22,23.38l-27.9 49.68 -27.63 -52.34c-6.64,-12.49 -2.12,-20.46 9.03,-20.46l0 -6.11 -62.97 0 0 6.64c9.83,0 17.01,6.11 24.98,21.25l35.6 66.42 -35.87 64.3c-8.23,14.88 -15.67,21.25 -24.97,21.25l0 6.91 46.23 0 0 -6.11c-14.61,0 -18.86,-9.56 -10.63,-24.44l29.76 -53.14 30.02 56.06c6.91,13.28 0.8,21.78 -12.22,21.78l0 5.85 67.48 0 0 -6.91c-10.1,0 -19.13,-6.64 -26.57,-21.25l-37.99 -71.47 32.68 -59.25zm133.9 152.5c-5.84,0 -19.66,0 -19.66,-23.38l0 -54.73 31.88 -76.25c7.97,-19.4 18.33,-19.4 23.38,-19.4l0 -6.64 -44.37 0 0 6.11c4.25,0 20.72,0 13.29,18.07l-29.76 71.2 -28.43 -69.88c-7.97,-19.39 5.85,-19.39 12.49,-19.39l0 -6.11 -61.64 0 0 6.64c5.85,0 13.28,0 21.25,18.07l34.8 81.3 0 51.01c0,23.38 -14.08,23.38 -19.93,23.38l0 6.38 66.69 0 0 -6.38zm150.11 -39.59c-8.24,29.22 -18.86,37.99 -55,37.99l-23.65 0 79.97 -174.29 0 -4.52 -97.77 0 -10.63 44.9 6.11 1.06c8.24,-29.49 19.66,-38 49.15,-38l22.05 0 -79.17 173.23 0 5.58 104.15 0 10.63 -45.17 -5.85 -0.8zm-1817.81 402.24c14.08,0 25.77,-7.44 32.95,-20.99l0.53 0c0.53,12.22 7.97,19.93 21.25,19.93 7.97,0 14.35,-2.92 20.46,-10.1l-2.92 -4.52c-2.65,1.86 -4.78,2.65 -7.44,2.65 -3.99,0 -7.97,-1.86 -7.97,-10.36l0 -70.67c0,-22.58 -14.08,-34.54 -40.38,-34.54 -14.88,0 -31.88,5.05 -43.84,12.49 1.59,9.83 4.52,19.93 9.56,28.69l3.45 -1.06c5.84,-22.85 15.94,-33.21 29.22,-33.21 10.89,0 16.74,8.24 16.74,25.24l0 21.25 -21.52 6.11c-28.16,7.7 -39.59,21.52 -39.59,40.65 0,17 11.69,28.43 29.49,28.43zm10.63 -14.35c-9.56,0 -15.94,-7.97 -15.94,-20.46 0,-14.61 7.44,-24.44 23.38,-29.49l13.55 -4.25 0 39.32c-5.85,10.1 -12.49,14.88 -20.99,14.88zm130.45 14.35c30.82,0 52.08,-28.69 52.08,-68.01 0,-35.87 -17.27,-60.58 -41.98,-60.58 -15.41,0 -26.57,7.97 -34.01,20.46l0 -86.61 -43.04 6.91 0 5.84c10.36,0.53 17.8,3.99 17.8,20.46l0 157.55 4.78 0 14.35 -6.64c7.97,6.91 17.8,10.63 30.02,10.63zm-1.59 -7.7c-12.49,0 -21.52,-10.1 -22.32,-24.98l0 -60.57c5.32,-14.61 14.08,-23.91 26.04,-23.91 15.41,0 23.65,19.93 23.65,53.93 0,41.18 -11.69,55.53 -27.37,55.53zm120.35 7.97c18.33,0 29.76,-8.77 37.99,-29.49l-5.05 -2.12c-5.32,10.36 -11.43,17.8 -24.44,17.8 -20.72,0 -35.07,-24.18 -35.07,-62.43 0,-28.16 9.3,-45.43 24.71,-45.43 10.89,0 17.54,11.43 20.19,32.95l3.99 1.06c5.85,-8.23 10.89,-19.66 12.49,-30.55 -7.97,-6.11 -20.46,-10.63 -34.01,-10.63 -29.22,0 -51.01,27.9 -51.01,65.36 0,37.73 20.19,63.5 50.21,63.5zm92.99 -0.27c16.47,0 28.16,-9.3 35.6,-22.58l0 20.99 38.53 -5.31 0 -5.85c-6.64,0 -14.61,-1.86 -14.61,-15.94l0 -166.05 -43.04 6.11 0 6.38c9.56,0 17.8,1.86 17.8,22.05l0 38.79c-6.91,-4.78 -14.88,-7.17 -23.91,-7.17 -30.82,0 -52.07,28.69 -52.07,68.01 0,35.6 17.27,60.58 41.71,60.58zm8.24 -11.43c-15.41,0 -23.65,-19.92 -23.65,-54.2 0,-40.92 11.69,-55.26 27.1,-55.26 12.22,0 21.25,9.56 22.58,23.11l0 62.97c-5.58,14.61 -14.35,23.38 -26.04,23.38zm164.99 -20.72c-7.7,14.08 -15.94,18.86 -28.43,18.86 -20.99,0 -35.6,-24.44 -35.6,-61.11l0 -3.99 66.69 0 0 -5.58c0,-27.37 -14.35,-44.64 -39.59,-44.64 -26.83,0 -49.68,27.1 -49.68,64.83 0,39.32 20.99,64.03 51.01,64.03 17.01,0 30.82,-9.56 40.12,-30.56l-4.52 -1.86zm-39.85 -89.8c13.28,0 19.39,13.81 19.66,36.13l-43.31 0c2.39,-21.78 11.69,-36.13 23.65,-36.13zm123.81 110.79c-17.54,0 -23.91,-4.52 -23.91,-19.13l0 -86.88 28.96 0 0 -7.17 -28.96 0 0 -44.37c0,-10.1 3.99,-17.27 12.22,-17.27 8.23,0 13.28,7.71 16.47,29.76l3.45 0.53c5.58,-8.77 8.77,-18.6 10.36,-28.16 -8.5,-5.05 -19.92,-7.97 -30.55,-7.97 -22.85,0 -36.93,14.08 -36.93,38.26l0 28.16 -19.13 2.92 0 5.32 19.13 0 0 87.94c0,12.49 -5.58,18.6 -16.74,18.6l0 6.64 65.62 0 0 -7.17zm59.51 68.55c32.94,0 55,-19.13 55,-43.31 0,-38.26 -50.75,-45.7 -79.71,-46.49l9.03 -16.74c4.78,1.86 10.36,2.66 16.2,2.66 27.37,0 44.9,-17.54 44.9,-40.92 0,-16.2 -8.24,-29.76 -20.72,-36.93 3.99,-7.17 10.63,-12.22 18.6,-12.22 4.25,0 8.24,1.86 10.1,6.64l2.12 0.53c4.25,-5.58 7.44,-15.14 7.44,-21.52 -3.19,-2.39 -7.71,-3.45 -12.75,-3.45 -15.14,0 -26.57,13.28 -30.29,27.89 -5.58,-2.39 -11.96,-3.72 -18.6,-3.72 -24.44,0 -46.23,18.07 -46.23,42.77 0,15.41 8.5,28.69 22.31,35.6l-21.52 39.06 2.92 3.19c4.78,0 11.69,0 19.13,0.27 -16.21,5.31 -28.43,19.13 -28.43,33.47 0,21.26 20.72,33.21 50.48,33.21zm0.53 -111.32c-13.55,0 -20.99,-13.55 -20.99,-34.8 0,-20.46 8.5,-34.01 21.52,-34.01 11.69,0 19.93,11.42 19.93,33.48 0,21.78 -7.17,35.33 -20.46,35.33zm1.86 104.41c-20.19,0 -34.01,-10.89 -34.01,-28.43 0,-13.02 6.91,-25.51 20.72,-30.55 27.36,2.65 48.88,10.63 48.88,31.62 0,16.47 -12.49,27.36 -35.6,27.36zm115.04 -60.84c-5.31,0 -15.41,0 -15.41,-18.6l0 -64.56c9.3,-11.96 19.4,-18.6 27.9,-18.6 9.03,0 13.55,5.32 13.55,15.41l0 70.14c0,16.21 -10.89,16.21 -14.35,16.21l0 6.38 55.53 0 0 -6.38c-3.72,0 -15.94,0 -15.94,-18.6l0 -70.41c0,-19.13 -8.23,-29.22 -24.71,-29.22 -14.57,0 -30.99,10.36 -42.68,25.51l0.26 -91.66 -43.09 6.91 0 5.84c12.49,0 18.6,4.52 18.6,20.46l0 132.57c0,18.6 -10.36,18.6 -15.94,18.6l0 6.38 56.28 0 0 -6.38zm104.68 -142.94c8.5,0 16.21,-7.44 16.21,-17.27 0,-9.83 -7.7,-17.27 -16.21,-17.27 -9.03,0 -16.74,7.44 -16.74,17.27 0,9.83 7.7,17.27 16.74,17.27zm32.15 142.67c-5.85,0 -17.01,0 -17.01,-18.6l0 -98.84 -41.44 6.64 0 5.85c8.77,0 16.47,0 16.47,18.33l0 68.01c0,18.6 -10.89,18.6 -16.74,18.6l0 6.64 58.72 0 0 -6.64zm37.2 -142.67c8.24,0 15.94,-7.44 15.94,-17.27 0,-9.83 -7.7,-17.27 -15.94,-17.27 -9.3,0 -17,7.44 -17,17.27 0,9.83 7.7,17.27 17,17.27zm-18.07 206.17c20.99,0 31.09,-13.81 31.09,-32.94l0 -147.99 -40.38 5.85 0 5.31c6.11,0 15.41,0 15.41,16.74l0 128.86c0,9.56 -3.72,14.35 -11.96,14.35 -5.84,0 -11.16,-1.59 -18.33,-5.32l-3.99 7.17c9.03,5.85 18.33,7.97 28.16,7.97zm112.65 -63.23c-5.32,0 -15.14,0 -15.14,-17.01l0 -30.29 9.56 -9.56 25.24 41.44c5.84,9.83 0.26,15.41 -7.7,15.41l0 6.38 57.39 0 0 -6.38c-10.63,0 -16.74,-4.78 -23.91,-16.74l-33.74 -56.86 16.74 -16.47c11.69,-11.69 19.93,-17.54 30.82,-17.54l0 -6.38 -47.56 0 0 5.84c8.77,0 12.22,2.66 12.22,6.91 0,3.99 -1.86,6.91 -7.97,12.75l-31.09 30.02 0 -125.93 -43.57 6.91 0 5.84c12.49,0 18.33,3.99 18.33,19.4l0 133.64c0,18.6 -10.9,18.6 -16.74,18.6l0 6.38 57.12 0 0 -6.38zm132.84 -0.27c-5.85,0 -16.74,0 -16.74,-18.6l0 -165.52 -43.04 6.91 0 5.84c11.69,0.27 17.8,3.72 17.8,19.13l0 133.64c0,18.6 -11.16,18.6 -17.01,18.6l0 6.64 58.98 0 0 -6.64zm66.42 0c-4.78,0 -14.61,0 -14.61,-16.74l0 -65.89c9.03,-12.22 19.39,-18.87 27.9,-18.87 9.03,0 13.55,5.32 13.55,15.41l0 70.67c0,15.41 -9.56,15.41 -14.34,15.41l0 6.64 54.46 0 0 -6.64c-4.78,0 -14.88,0 -14.88,-15.94l0 -66.68c9.3,-12.22 19.39,-18.87 27.89,-18.87 9.03,0 13.82,5.32 13.82,15.41l0 69.88c0,16.2 -9.56,16.2 -14.35,16.2l0 6.64 55.53 0 0 -6.64c-5.58,0 -15.94,0 -15.94,-17.8l0 -70.94c0,-19.13 -8.23,-29.22 -24.71,-29.22 -14.61,0 -30.82,10.1 -42.24,24.98 -1.33,-16.47 -9.56,-24.98 -24.71,-24.98 -15.41,0 -32.41,11.43 -44.11,27.37l0 -26.04 -38.26 6.11 0 5.58c9.3,0 15.14,1.59 15.14,19.13l0 67.22c0,18.6 -10.63,18.6 -15.68,18.6l0 6.64 55.53 0 0 -6.64zm253.2 -88.74c0,-19.13 -8.24,-29.22 -24.71,-29.22 -15.41,0 -32.41,11.43 -44.11,27.37l0 -26.04 -38.26 6.11 0 5.58c7.97,0 15.14,0 15.14,18.86l0 67.48c0,18.6 -10.63,18.6 -15.68,18.6l0 6.64 55.53 0 0 -6.64c-4.78,0 -14.61,0 -14.61,-16.74l0 -65.89c9.03,-12.22 19.39,-18.87 27.9,-18.87 9.03,0 13.55,5.32 13.55,15.41l0 69.88c0,16.2 -10.89,16.2 -14.34,16.2l0 6.64 55.53 0 0 -6.64c-3.72,0 -15.94,0 -15.94,-18.6l0 -70.14zm80.24 99.63c31.62,0 53.93,-28.96 53.93,-66.42 0,-35.6 -21.79,-62.43 -51.28,-62.43 -32.15,0 -54.2,29.76 -54.2,66.16 0,36.93 21.78,62.7 51.54,62.7zm1.59 -7.17c-16.47,0 -25.77,-19.93 -25.77,-57.39 0,-36.93 9.03,-57.12 25.51,-57.12 15.67,0 25.24,20.99 25.24,57.12 0,38.79 -8.5,57.39 -24.97,57.39zm129.92 54.73c-9.83,0 -23.65,0 -23.65,-20.46l0 -34.27c6.91,4.52 14.61,7.17 23.65,7.17 30.82,0 52.07,-28.96 52.07,-68.28 0,-35.6 -17.27,-60.58 -41.98,-60.58 -16.47,0 -28.16,9.56 -35.6,23.65l0 -22.32 -39.85 5.32 0 6.11c10.36,0 16.47,1.33 16.47,19.93l0 125.67c0,18.6 -11.16,18.6 -17,18.6l0 6.64 65.89 0 0 -7.17zm-1.33 -55.53c-11.96,0 -20.99,-9.3 -22.32,-23.38l0 -62.43c5.85,-14.88 14.08,-23.65 25.77,-23.65 15.41,0 23.65,20.19 23.65,54.2 0,41.18 -11.69,55.26 -27.1,55.26zm166.32 -120.89l-13.81 10.89c-7.97,-6.91 -17.8,-10.89 -30.02,-10.89 -30.82,0 -52.08,28.69 -52.08,68.01 0,35.87 17.27,60.84 41.71,60.84 15.41,0 26.57,-8.24 34.01,-20.46l0 47.56c0,20.46 -15.41,20.46 -23.65,20.46l0 7.17 65.62 0 0 -6.64c-5.85,0 -16.74,0 -16.74,-18.6l0 -158.35 -5.05 0zm-20.19 93.79c-5.85,14.88 -14.35,23.65 -25.77,23.65 -15.41,0 -23.91,-20.19 -23.91,-54.46 0,-40.92 11.69,-55.26 27.37,-55.26 11.96,0 20.72,9.3 22.32,23.38l0 62.7zm113.18 30.82l0 -6.64c-11.96,0 -24.44,-1.59 -24.44,-20.19l0 -58.72c3.99,-10.89 12.22,-18.33 20.99,-18.33 6.11,0 9.83,2.92 12.22,8.24l3.45 0c3.45,-10.36 5.32,-20.72 5.05,-26.57 -2.66,-1.59 -6.91,-2.39 -11.42,-2.39 -14.88,0 -27.63,12.75 -32.68,32.68l0.53 -31.35 -39.06 6.11 0 5.58c5.85,0 16.21,0 16.21,20.19l0 66.42c0,16.74 -10.63,18.6 -17.01,18.6l0 6.38 66.16 0zm67.48 4.25c24.18,0 40.91,-14.35 40.91,-36.13 0,-17.8 -9.3,-29.22 -33.47,-41.71 -22.85,-11.96 -28.43,-17.54 -28.43,-27.9 0,-9.3 7.17,-15.94 18.07,-15.94 13.55,0 22.32,7.44 26.83,25.51l2.92 0.8c4.78,-6.64 8.5,-16.74 9.03,-24.98 -11.16,-5.58 -24.44,-8.5 -37.2,-8.5 -21.52,0 -37.73,13.82 -37.73,34.27 0,16.47 10.36,27.9 34.01,39.32 22.05,10.63 27.9,17.8 27.9,29.76 0,11.16 -8.23,18.33 -20.99,18.33 -15.41,0 -25.51,-8.77 -29.49,-29.49l-2.92 -0.8c-6.38,7.7 -10.9,19.13 -10.63,26.83 10.89,6.64 24.71,10.63 41.18,10.63zm-2026.1 351.5c9.03,0 18.33,-2.66 27.63,-10.9l-3.19 -5.05c-5.58,4.25 -10.89,5.58 -15.67,5.58 -11.42,0 -16.47,-6.38 -16.47,-24.98l0 -81.03 31.62 0 0 -7.44 -31.62 0 0 -34.8 -5.31 0 -15.68 29.22 -27.63 7.7 0 5.31 23.38 0 0 83.96c0,22.58 10.89,32.41 32.94,32.41zm78.38 0.53c15.94,0 28.96,-10.1 39.85,-27.9l0 27.1 36.67 -5.85 0 -6.11c-7.44,0 -13.55,-3.72 -13.55,-15.14l0 -99.9 -40.65 6.11 0 5.85c4.25,0 15.67,0 15.67,19.66l0 61.11c-8.23,10.36 -15.94,18.6 -27.1,18.6 -11.96,0 -15.41,-7.71 -15.41,-21.79l0 -89.53 -40.38 6.11 0 6.11c7.17,0 15.41,0 15.41,20.72l0 57.65c0,20.72 6.11,37.2 29.49,37.2zm160.21 -117.96c12.22,0 16.2,6.11 12.22,18.6l-22.58 73.33 -22.05 -73.33c-3.72,-12.22 0.53,-18.6 12.75,-18.6l0 -6.38 -57.39 0 0 6.38c9.03,0 13.81,4.52 17.8,17l31.35 96.98 18.07 0 29.76 -95.38c4.25,-13.81 9.03,-18.6 19.4,-18.6l0 -6.38 -39.32 0 0 6.38zm130.18 26.83l19.93 87.14 24.18 0 20.46 -95.38c3.72,-18.07 12.75,-18.6 19.66,-18.6l0 -6.38 -39.32 0 0 6.38c4.52,0 16.21,0.53 12.49,18.6l-16.74 79.71 -20.19 -93.26 -23.38 0 -20.46 94.85 -18.33 -81.3c-3.99,-18.33 7.97,-18.6 12.49,-18.6l0 -6.38 -57.39 0 0 6.38c6.64,0 14.35,0.53 18.6,18.6l22.58 95.38 26.04 0 19.39 -87.14zm174.55 -8.24c8.5,-14.35 14.08,-18.6 24.44,-18.6l0 -6.38 -40.12 0 0 5.84c8.23,0 12.22,2.39 12.22,7.44 0,2.66 -1.06,5.85 -3.45,9.83l-14.88 24.44 -13.28 -23.11c-3.19,-5.31 -4.78,-9.3 -4.78,-12.22 0,-4.52 3.99,-6.38 11.96,-6.38l0 -5.84 -57.12 0 0 6.38c8.24,0 12.75,3.99 21.79,18.6l21.52 36.13 -20.72 34.01c-8.24,13.28 -15.14,18.6 -24.45,18.6l0 6.64 42.24 0 0 -5.85c-8.77,0 -13.82,-3.45 -13.82,-9.03 0,-2.13 0.8,-4.78 2.39,-7.44l18.33 -30.29 18.07 30.29c2.12,3.45 3.19,6.38 3.19,8.77 0,5.05 -4.52,7.7 -13.55,7.7l0 5.85 59.51 0 0 -6.64c-9.3,0 -15.14,-4.78 -23.65,-18.6l-23.65 -40.92 17.8 -29.22zm107.87 -18.6c11.69,0 16.21,6.64 13.02,18.6l-22.58 82.63 -22.58 -81.83c-3.45,-13.02 0.8,-19.39 13.55,-19.39l0 -6.38 -57.66 0 0 6.38c8.24,0 13.29,4.78 16.47,15.41l30.02 98.57 16.74 0 -7.17 26.57c-3.99,13.02 -10.1,18.6 -19.13,18.6 -8.5,0 -14.35,-6.38 -16.47,-18.6l-3.72 -1.33c-5.31,6.64 -9.83,15.41 -12.22,24.18 6.64,6.38 16.74,10.63 26.57,10.63 15.14,0 25.77,-9.83 31.09,-29.22l34.8 -126.2c3.72,-13.81 8.5,-18.6 19.66,-18.6l0 -6.38 -40.38 0 0 6.38zm132.31 78.64l-6.11 -0.8c-4.25,20.46 -14.34,28.69 -35.6,28.69l-18.6 0 57.12 -108.13 0 -4.78 -73.33 0 -7.97 31.88 6.11 1.33c4.52,-18.33 14.08,-26.57 32.68,-26.57l14.61 0 -57.39 108.4 0 5.31 81.56 0 6.91 -35.33zm90.33 28.69c-7.44,0 -22.32,0 -22.32,-22.58l0 -125.4c0,-15.41 2.12,-20.46 13.02,-27.37l0 -7.44 -67.22 27.1 0 8.23 27.63 -10.63 0 131.25c0,26.83 -17,26.83 -28.43,26.83l0 6.64 77.32 0 0 -6.64zm28.43 -18.68c43.57,-37.42 90.6,-82.32 90.6,-121.86 0,-24.98 -20.19,-43.84 -50.48,-43.84 -24.98,0 -47.56,18.33 -56.06,34.8 5.58,9.56 12.22,16.21 24.71,23.65l3.45 -2.92c-0.53,-26.3 9.83,-48.35 26.57,-48.35 16.21,0 23.11,12.75 23.11,27.1 0,39.05 -33.21,89.49 -78.91,138.06l5.31 18.64 105.48 0 0 -50.79 -6.91 0 0 24.71 -86.88 0.8zm153.56 -87.32l52.61 -66.16 -5.31 -7.97 -86.88 0 0 45.7 6.91 0 0 -19.93 60.31 0 -52.08 66.42 3.99 5.05 10.36 0c20.72,0 44.64,6.91 44.64,35.6 0,27.1 -33.74,48.88 -70.94,49.95l1.86 7.97c40.38,-0.53 93.25,-24.18 93.25,-68.81 0,-44.37 -44.9,-47.82 -56.59,-47.82l-2.13 0zm190.5 106.01c-8.77,0 -22.58,0 -22.58,-22.58l0 -26.83 24.98 0 0 -9.03 -24.98 0 0 -71.47 -6.38 0 -20.46 23.38 0 48.09 -62.7 0c28.96,-26.57 65.09,-72.27 76.52,-121.95 -4.52,-4.25 -11.43,-6.64 -19.66,-6.64 -4.25,0 -8.5,0.53 -12.75,1.59 3.19,46.76 -24.71,100.43 -54.73,126.2l5.58 9.83 67.75 0 0 24.44c0,24.97 -13.81,24.97 -26.57,24.97l0 6.64 75.98 0 0 -6.64zm24.97 7.97c48.09,-6.91 90.6,-35.6 90.6,-80.5 0,-20.72 -12.22,-45.17 -44.64,-45.17 -19.93,0 -35.6,8.5 -47.56,22.05l10.1 -58.72 70.94 0 0 -44.37 -6.64 0 0 18.6 -67.75 0 -16.21 95.91 6.64 2.92c13.28,-8.24 23.38,-13.02 39.85,-13.02 20.46,0 30.29,15.14 30.29,32.68 0,31.62 -26.3,53.93 -68.28,62.7l2.65 6.91zm181.46 -123.01c-20.46,0 -37.99,16.21 -45.7,35.87 4.78,-59.78 36.4,-94.05 66.16,-102.02l-2.13 -6.91c-42.77,7.17 -91.93,49.95 -91.93,116.37 0,53.14 28.43,82.36 62.97,82.36 35.33,0 56.06,-30.55 56.06,-66.42 0,-36.67 -19.66,-59.25 -45.43,-59.25zm-10.1 116.9c-20.99,0 -35.6,-23.65 -36.13,-63.77 2.12,-14.61 17,-33.21 35.07,-33.21 21.25,0 30.55,19.4 30.55,45.43 0,28.96 -8.24,51.54 -29.49,51.54zm61.11 -136.56l6.91 0 0 -19.13 82.09 0c-19.92,36.13 -46.76,89 -71.73,160.47l33.74 0c14.35,-75.72 37.46,-137.62 54.2,-177.74l-5.05 -9.03 -100.16 0 0 45.43zm174.29 145.33c36.67,0 58.72,-24.18 58.72,-57.12 0,-28.69 -16.47,-47.29 -39.85,-53.67 18.6,-6.64 30.82,-23.38 30.82,-41.71 0,-24.18 -19.66,-42.51 -49.95,-42.51 -32.68,0 -49.68,21.78 -49.68,43.31 0,18.33 12.22,34.54 30.56,41.18 -23.65,6.38 -39.85,25.51 -39.85,53.67 0,34.27 23.91,56.86 59.25,56.86zm-0.26 -113.98c-14.61,0 -24.45,-15.41 -24.45,-38.26 0,-24.44 10.63,-35.34 24.71,-35.34 14.08,0 24.18,10.36 24.18,35.07 0,23.38 -9.56,38.53 -24.44,38.53zm0.53 105.74c-17.8,0 -30.56,-17.27 -30.56,-49.68 0,-30.29 11.69,-47.29 30.29,-47.29 18.6,0 30.29,16.74 30.29,47.29 0,32.15 -11.96,49.68 -30.02,49.68z"/>
   <path class="fil1" d="M1867.49 2427.56c-32.95,0 -55.53,27.9 -55.53,61.11 0,35.33 21.25,57.12 48.62,57.12 19.4,0 32.41,-12.22 38.79,-27.9 -6.38,54.2 -40.91,90.6 -70.94,97.51l1.86 7.17c43.31,-6.11 98.04,-53.4 98.04,-120.35 0,-47.03 -26.57,-74.66 -60.84,-74.66zm2.92 101.22c-18.6,0 -32.41,-15.67 -32.41,-48.88 0,-24.98 11.16,-44.11 29.22,-44.11 20.72,0 32.94,20.19 33.21,62.7 -1.86,13.29 -12.22,30.29 -30.02,30.29zm147.98 93.79c40.38,0 69.61,-37.73 69.61,-98.83 0,-58.98 -29.76,-96.18 -69.34,-96.18 -40.12,0 -69.87,37.46 -69.87,96.71 0,60.58 28.69,98.3 69.61,98.3zm0.53 -9.03c-24.44,0 -40.91,-30.82 -40.91,-90.07 0,-56.59 15.41,-87.94 40.38,-87.94 24.71,0 40.38,30.82 40.38,90.33 0,57.92 -15.41,87.67 -39.85,87.67zm-1988.11 265.95c8.5,0 15.67,-7.17 15.67,-16.74 0,-9.03 -7.17,-16.47 -15.67,-16.47 -8.77,0 -16.2,7.44 -16.2,16.47 0,9.56 7.44,16.74 16.2,16.74zm0.27 152.24c5.58,0 10.63,-1.33 14.35,-3.72l-11.43 -124.61 -6.64 0 -10.9 124.61c3.99,2.66 9.3,3.72 14.61,3.72zm61.64 -115.3l11.42 -131.51c-7.17,-4.78 -20.72,-5.32 -28.96,0l10.89 131.51 6.64 0zm-3.19 57.39c8.5,0 15.67,-7.7 15.67,-16.47 0,-9.56 -7.17,-16.74 -15.67,-16.74 -8.77,0 -16.21,7.17 -16.21,16.74 0,8.77 7.44,16.47 16.21,16.47zm183.32 26.57c26.04,0 43.04,-8.77 53.67,-19.13l-3.19 -4.25c-9.3,7.17 -23.38,13.02 -43.57,13.02 -37.99,0 -75.72,-26.04 -75.72,-85.02 0,-41.45 24.71,-83.16 77.05,-83.16 40.65,0 70.14,31.35 70.14,82.09 0,24.45 -5.31,49.68 -20.46,49.68 -8.24,0 -14.08,-6.91 -14.08,-24.44l0 -70.94 -5.05 0 -9.03 7.44c-6.91,-7.44 -16.2,-12.22 -26.57,-12.22 -26.83,0 -45.43,22.58 -45.43,55 0,27.9 15.14,50.21 39.85,50.21 9.56,0 22.58,-4.78 28.16,-21.25 3.99,14.88 17.54,24.44 32.15,24.44 21.78,0 42.24,-24.18 42.24,-60.31 0,-52.6 -42.51,-87.94 -91.93,-87.94 -60.04,0 -100.43,44.11 -100.43,94.05 0,57.92 46.23,92.72 92.19,92.72zm3.72 -53.93c-15.41,0 -22.32,-15.67 -22.32,-41.45 0,-31.62 10.36,-43.57 22.58,-43.57 10.36,0 17,8.24 17.8,19.4l0 41.44c0,19.13 -11.42,24.18 -18.07,24.18zm151.71 -18.33l37.2 0 -10.1 42.77 9.03 0 10.1 -42.77 28.96 0 2.39 -11.16 -28.69 0 9.56 -41.45 26.04 0 2.39 -11.16 -25.77 0 9.56 -41.18 -9.03 0 -9.56 41.18 -37.2 0 9.56 -41.18 -9.03 0 -9.56 41.18 -32.15 0 -2.39 11.16 31.88 0 -9.83 41.45 -28.96 0 -2.39 11.16 28.96 0 -10.1 42.77 9.03 0 10.1 -42.77zm49.42 -52.61l-9.83 41.45 -36.93 0 9.56 -41.45 37.2 0zm165.26 47.56c0,-32.94 -24.18,-48.35 -47.03,-62.43l-1.86 -1.06 0 -67.75c15.41,3.45 28.16,18.33 30.82,45.7l8.24 0 0 -53.4 -6.38 0 -6.11 17.53c-6.38,-9.56 -16.21,-15.14 -26.57,-17.27l0 -17.8 -7.7 0 0 17 -0.8 0c-27.37,0 -47.03,20.46 -47.03,45.7 0,29.49 22.85,44.37 45.17,58.72 0.27,0 0.27,0.26 0.53,0.26l0 78.64c-20.72,-2.92 -39.32,-23.38 -44.9,-57.39l-7.17 0 0 61.37 7.44 0 6.91 -21.52c7.7,12.75 20.99,22.85 37.73,24.98l0 21.25 7.7 0 0 -20.72c27.36,0 51.01,-20.19 51.01,-51.81zm-82.89 -105.48c0,-14.35 10.1,-26.3 26.3,-26.57l0 63.5c-14.61,-9.83 -26.3,-20.19 -26.3,-36.93zm31.88 75.72c16.47,11.16 30.55,23.11 30.55,41.71 0,18.86 -11.16,31.09 -30.55,32.15l0 -73.86zm96.98 -41.18c15.41,0 30.02,-12.22 30.02,-35.87 0,-22.58 -15.14,-34.54 -30.29,-34.54 -16.2,0 -31.08,11.95 -31.08,34.54 0,23.65 14.08,35.87 31.35,35.87zm92.72 -68.01l-14.35 0 -102.29 186.77 15.14 0 101.49 -186.77zm-92.72 61.64c-7.17,0 -11.96,-7.97 -11.96,-29.22 0,-20.19 3.72,-28.43 11.43,-28.43 7.17,0 11.42,7.97 11.42,30.29 0,20.19 -3.72,27.37 -10.89,27.37zm74.39 127c15.68,0 30.29,-12.22 30.29,-36.13 0,-22.32 -15.14,-34.27 -30.55,-34.27 -16.21,0 -30.82,11.96 -30.82,34.54 0,23.65 14.08,35.87 31.09,35.87zm0.27 -6.38c-7.44,0 -12.22,-8.24 -12.22,-29.22 0,-20.46 3.72,-28.43 11.69,-28.43 6.91,0 11.42,7.97 11.42,30.29 0,20.19 -3.72,27.37 -10.89,27.37zm110.53 -66.16c5.58,-1.33 13.02,-5.31 17.53,-9.56l0 -2.92c-11.96,-18.6 -20.19,-34.8 -26.83,-49.15 -3.99,-1.33 -14.08,-0.8 -18.33,0.8 -5.84,16.2 -14.88,35.33 -27.1,56.32l4.52 3.72c11.42,-15.41 20.99,-31.09 27.1,-44.37 5.05,12.49 12.49,26.83 23.11,45.17zm131.78 -20.72l22.58 0c6.38,17.01 6.11,35.34 0.26,49.15l-53.67 -69.61c-7.7,-9.83 -20.72,-28.69 -20.72,-46.23 0,-13.55 7.7,-22.85 20.19,-22.85 14.35,0 22.58,14.88 23.11,40.92l3.99 1.59 18.07 -30.56c-11.96,-11.96 -26.04,-19.39 -44.11,-19.39 -25.77,0 -43.31,17 -43.31,39.32 0,19.13 12.22,35.6 20.46,45.96l5.05 6.38c-18.33,8.5 -38.53,27.1 -38.53,52.34 0,30.29 24.98,48.35 55.26,48.35 21.25,0 35.33,-8.5 45.7,-19.4l19.13 24.71 17.27 -15.41 -22.58 -28.96c7.17,-15.94 9.3,-33.21 3.19,-56.32l22.85 0 0 -7.97 -54.2 0 0 7.97zm-22.32 78.38c-22.85,0 -40.65,-16.2 -40.65,-39.32 0,-17.01 8.5,-29.76 19.13,-38.52l51.01 66.42c-7.97,6.64 -16.74,11.42 -29.49,11.42zm128.32 -103.09l16.21 -12.75 -23.91 -20.72 30.55 -5.32 -5.84 -17 -27.9 15.14 5.85 -30.82 -18.6 0 5.58 30.82 -28.16 -15.14 -5.58 17 30.82 5.58 -23.91 20.46 16.2 12.75 14.08 -29.22 14.61 29.22zm100.96 137.89c-21.26,-23.65 -36.13,-59.25 -36.13,-108.4 0,-46.49 16.21,-80.5 36.13,-103.88l-4.52 -4.78c-32.41,24.71 -59.25,60.84 -59.25,108.93 0,49.95 23.65,86.61 59.25,113.18l4.52 -5.05zm2.92 -212.02c20.99,23.65 36.13,58.98 36.13,108.4 0,46.23 -16.47,80.5 -36.4,103.62l4.52 5.05c32.68,-24.71 59.25,-61.11 59.25,-109.19 0,-49.68 -23.65,-86.35 -59.25,-112.92l-4.25 5.05z"/>
  </g>
  <path class="fil0" d="M3740.54 596.56l-224.13 -555.73 -85.82 0 -223.29 555.73 79.15 0 49.16 -123.31 276.61 0 49.16 123.31 79.15 0zm-149.14 -184.97l-235.79 0 118.31 -299.11 117.48 299.11zm533.23 184.97l0 -276.62c0,-97.48 -70.82,-135.81 -155.8,-135.81 -65.82,0 -117.48,21.66 -160.8,66.65l29.16 43.33c35.83,-38.33 74.99,-55.82 123.31,-55.82 58.32,0 101.65,30.83 101.65,84.98l0 72.49c-32.49,-37.49 -78.32,-54.99 -133.31,-54.99 -68.32,0 -140.81,42.49 -140.81,132.48 0,87.48 72.49,133.31 140.81,133.31 54.16,0 99.98,-19.16 133.31,-55.82l0 45.83 62.49 0zm-173.3 -34.99c-58.32,0 -99.15,-36.66 -99.15,-87.49 0,-51.66 40.82,-88.32 99.15,-88.32 44.16,0 86.65,16.67 110.81,49.99l0 75.82c-24.16,33.33 -66.66,49.99 -110.81,49.99z"/>
  <path class="fil1" d="M3221.53 1047.09l0 -70.41 49.15 0c35.07,0 55.53,-24.44 55.53,-53.4 0,-28.96 -19.93,-53.4 -55.53,-53.4l-71.21 0 0 177.22 22.05 0zm46.5 -90.07l-46.5 0 0 -67.49 46.5 0c20.99,0 35.34,13.82 35.34,33.74 0,19.93 -14.35,33.74 -35.34,33.74zm106.54 90.07l0 -90.87c5.85,-10.36 22.58,-20.46 34.8,-20.46 3.19,0 5.58,0.26 7.97,0.8l0 -20.46c-17.54,0 -32.41,9.83 -42.77,23.38l0 -20.72 -19.93 0 0 128.33 19.93 0zm123.81 3.19c39.06,0 63.5,-30.29 63.5,-67.48 0,-37.2 -24.44,-67.22 -63.5,-67.22 -39.06,0 -63.5,30.02 -63.5,67.22 0,37.2 24.45,67.48 63.5,67.48zm0 -17.8c-27.37,0 -42.78,-23.38 -42.78,-49.68 0,-26.04 15.41,-49.42 42.78,-49.42 27.36,0 42.51,23.38 42.51,49.42 0,26.3 -15.14,49.68 -42.51,49.68zm192.36 14.61l-49.42 -65.89 46.49 -62.44 -23.11 0 -35.6 48.89 -35.6 -48.89 -23.11 0 46.49 62.44 -49.15 65.89 22.85 0 38.53 -52.61 38.53 52.61 23.11 0zm32.68 -146.66c7.44,0 13.55,-5.85 13.55,-13.29 0,-7.44 -6.11,-13.55 -13.55,-13.55 -7.17,0 -13.29,6.11 -13.29,13.55 0,7.44 6.11,13.29 13.29,13.29zm10.1 146.66l0 -128.33 -19.93 0 0 128.33 19.93 0zm214.68 0l0 -92.73c0,-25.77 -12.49,-38.79 -35.87,-38.79 -18.6,0 -35.87,12.22 -43.04,23.91 -3.72,-13.28 -14.88,-23.91 -34.54,-23.91 -18.86,0 -36.13,13.55 -41.45,21.79l0 -18.6 -19.93 0 0 128.33 19.93 0 0 -93.79c6.91,-10.36 20.72,-19.93 33.74,-19.93 16.74,0 23.65,10.36 23.65,26.57l0 87.15 19.93 0 0 -94.05c6.64,-10.1 20.72,-19.66 34.01,-19.66 16.47,0 23.65,10.36 23.65,26.57l0 87.15 19.93 0zm140.02 0l0 -88.21c0,-31.09 -22.58,-43.31 -49.68,-43.31 -20.99,0 -37.46,6.91 -51.28,21.25l9.3 13.82c11.43,-12.22 23.91,-17.8 39.32,-17.8 18.6,0 32.41,9.83 32.41,27.1l0 23.11c-10.36,-11.96 -24.97,-17.54 -42.51,-17.54 -21.79,0 -44.9,13.55 -44.9,42.24 0,27.9 23.11,42.51 44.9,42.51 17.27,0 31.88,-6.11 42.51,-17.8l0 14.61 19.93 0zm-55.26 -11.16c-18.6,0 -31.62,-11.69 -31.62,-27.9 0,-16.47 13.02,-28.16 31.62,-28.16 14.08,0 27.63,5.32 35.33,15.94l0 24.18c-7.7,10.63 -21.25,15.94 -35.33,15.94zm311.12 11.16l0 -177.22 -22.05 0 0 138.43 -102.02 -138.43 -22.58 0 0 177.22 22.05 0 0 -141.35 103.35 141.35 21.25 0zm96.71 3.19c39.06,0 63.5,-30.29 63.5,-67.48 0,-37.2 -24.44,-67.22 -63.5,-67.22 -39.06,0 -63.5,30.02 -63.5,67.22 0,37.2 24.45,67.48 63.5,67.48zm0 -17.8c-27.37,0 -42.78,-23.38 -42.78,-49.68 0,-26.04 15.41,-49.42 42.78,-49.42 27.36,0 42.51,23.38 42.51,49.42 0,26.3 -15.14,49.68 -42.51,49.68zm151.98 14.61l53.4 -128.33 -21.79 0 -42.51 105.21 -42.77 -105.21 -21.52 0 53.4 128.33 21.79 0zm174.29 0l0 -88.21c0,-31.09 -22.58,-43.31 -49.68,-43.31 -20.99,0 -37.46,6.91 -51.28,21.25l9.3 13.82c11.43,-12.22 23.91,-17.8 39.32,-17.8 18.6,0 32.41,9.83 32.41,27.1l0 23.11c-10.36,-11.96 -24.97,-17.54 -42.51,-17.54 -21.79,0 -44.9,13.55 -44.9,42.24 0,27.9 23.11,42.51 44.9,42.51 17.27,0 31.88,-6.11 42.51,-17.8l0 14.61 19.93 0zm-55.26 -11.16c-18.6,0 -31.62,-11.69 -31.62,-27.9 0,-16.47 13.02,-28.16 31.62,-28.16 14.08,0 27.63,5.32 35.33,15.94l0 24.18c-7.7,10.63 -21.25,15.94 -35.33,15.94zm204.85 54.73c-17,-33.48 -27.63,-64.03 -27.63,-108.13 0,-44.37 10.63,-74.66 27.63,-108.4l-11.96 -9.03c-23.91,32.95 -37.46,74.66 -37.46,117.44 0,42.77 13.55,84.76 37.46,117.44l11.96 -9.3zm154.1 -43.57l-47.82 -72.27c24.18,-2.13 45.96,-19.66 45.96,-51.55 0,-32.68 -23.11,-53.4 -55.53,-53.4l-71.21 0 0 177.22 22.05 0 0 -70.41 35.34 0 45.17 70.41 26.04 0zm-60.05 -89.8l-46.5 0 0 -67.75 46.5 0c20.99,0 35.34,13.82 35.34,33.74 0,19.93 -14.35,34.01 -35.34,34.01zm142.14 92.99c20.99,0 38.26,-6.91 51.01,-19.66l-9.56 -13.02c-10.1,10.36 -24.97,16.21 -39.59,16.21 -27.63,0 -44.64,-20.19 -46.23,-44.37l103.89 0 0 -5.05c0,-38.53 -22.85,-68.81 -61.64,-68.81 -36.67,0 -63.23,30.02 -63.23,67.22 0,40.12 27.37,67.48 65.36,67.48zm39.85 -75.45l-84.22 0c1.06,-19.66 14.61,-42.78 41.98,-42.78 29.23,0 41.98,23.65 42.24,42.78zm103.35 124.34c31.35,0 61.11,-13.29 61.11,-55.79l0 -124.61 -19.93 0 0 19.4c-10.36,-14.08 -25.77,-22.58 -43.04,-22.58 -33.74,0 -57.13,25.51 -57.13,66.69 0,41.45 23.65,66.42 57.13,66.42 18.07,0 33.74,-9.83 43.04,-22.85l0 18.33c0,28.16 -19.93,38.52 -41.18,38.52 -18.33,0 -31.09,-4.78 -41.71,-17.54l-10.1 14.88c15.14,14.88 30.02,19.13 51.81,19.13zm2.92 -68.02c-25.77,0 -41.18,-20.72 -41.18,-48.89 0,-28.43 15.41,-48.88 41.18,-48.88 15.94,0 31.35,9.56 38.26,20.72l0 56.06c-6.91,11.16 -22.32,20.99 -38.26,20.99zm204.58 15.94l0 -128.33 -19.93 0 0 94.32c-7.44,10.36 -22.32,19.39 -37.99,19.39 -17.27,0 -28.69,-6.64 -28.69,-29.22l0 -84.49 -19.93 0 0 90.6c0,27.9 14.08,40.92 40.92,40.92 19.13,0 35.87,-10.1 45.7,-21.25l0 18.07 19.93 0zm59.78 0l0 -177.22 -19.93 0 0 177.22 19.93 0zm140.02 0l0 -88.21c0,-31.09 -22.58,-43.31 -49.68,-43.31 -20.99,0 -37.46,6.91 -51.28,21.25l9.3 13.82c11.43,-12.22 23.91,-17.8 39.32,-17.8 18.6,0 32.41,9.83 32.41,27.1l0 23.11c-10.36,-11.96 -24.97,-17.54 -42.51,-17.54 -21.79,0 -44.9,13.55 -44.9,42.24 0,27.9 23.11,42.51 44.9,42.51 17.27,0 31.88,-6.11 42.51,-17.8l0 14.61 19.93 0zm-55.26 -11.16c-18.6,0 -31.62,-11.69 -31.62,-27.9 0,-16.47 13.02,-28.16 31.62,-28.16 14.08,0 27.63,5.32 35.33,15.94l0 24.18c-7.7,10.63 -21.25,15.94 -35.33,15.94zm115.04 11.16l0 -90.87c5.85,-10.36 22.58,-20.46 34.8,-20.46 3.19,0 5.58,0.26 7.97,0.8l0 -20.46c-17.54,0 -32.41,9.83 -42.77,23.38l0 -20.72 -19.93 0 0 128.33 19.93 0zm188.11 -55.53l0 -17.54 -63.77 0 0 17.54 63.77 0zm178.01 55.53c32.41,0 51.28,-19.4 51.28,-47.82 0,-21.25 -15.68,-40.65 -34.54,-43.57 16.21,-3.45 31.09,-18.33 31.09,-40.65 0,-26.57 -18.87,-45.17 -49.68,-45.17l-78.91 0 0 177.22 80.77 0zm-5.58 -100.43l-53.14 0 0 -57.13 53.14 0c19.93,0 30.55,12.75 30.55,28.7 0,16.2 -10.63,28.43 -30.55,28.43zm1.06 80.77l-54.2 0 0 -61.11 54.2 0c21.79,0 32.95,14.35 32.95,30.56 0,18.86 -12.22,30.56 -32.95,30.56zm146.13 22.85c39.06,0 63.5,-30.29 63.5,-67.48 0,-37.2 -24.44,-67.22 -63.5,-67.22 -39.06,0 -63.5,30.02 -63.5,67.22 0,37.2 24.45,67.48 63.5,67.48zm0 -17.8c-27.37,0 -42.78,-23.38 -42.78,-49.68 0,-26.04 15.41,-49.42 42.78,-49.42 27.36,0 42.51,23.38 42.51,49.42 0,26.3 -15.14,49.68 -42.51,49.68zm115.84 14.61l0 -177.22 -19.93 0 0 177.22 19.93 0zm152.77 0l0 -177.22 -19.93 0 0 68.28c-10.36,-14.08 -26.04,-22.58 -43.31,-22.58 -33.74,0 -57.13,26.57 -57.13,67.48 0,41.71 23.65,67.22 57.13,67.22 18.07,0 33.74,-9.3 43.31,-22.32l0 19.13 19.93 0zm-58.45 -14.61c-25.77,0 -41.18,-20.99 -41.18,-49.42 0,-28.43 15.41,-49.68 41.18,-49.68 15.94,0 31.35,9.56 38.52,20.72l0 58.19c-7.17,11.16 -22.58,20.19 -38.52,20.19zm94.85 67.49c24.18,-32.68 37.73,-74.66 37.73,-117.44 0,-42.77 -13.55,-84.49 -37.73,-117.44l-11.96 9.03c17.27,33.74 27.9,64.03 27.9,108.4 0,44.11 -10.63,74.66 -27.9,108.13l11.96 9.3z"/>
  <path class="fil1" d="M3367.13 1550.81l-71.47 -177.21 -27.37 0 -71.2 177.21 25.24 0 15.67 -39.32 88.21 0 15.67 39.32 25.24 0zm-47.56 -58.98l-75.19 0 37.73 -95.38 37.46 95.38zm151.44 58.98c32.41,0 51.28,-19.4 51.28,-47.82 0,-21.25 -15.67,-40.65 -34.54,-43.57 16.2,-3.45 31.09,-18.33 31.09,-40.65 0,-26.57 -18.86,-45.17 -49.68,-45.17l-78.91 0 0 177.21 80.77 0zm-5.58 -100.43l-53.14 0 0 -57.12 53.14 0c19.93,0 30.56,12.75 30.56,28.69 0,16.21 -10.63,28.43 -30.56,28.43zm1.06 80.77l-54.2 0 0 -61.11 54.2 0c21.78,0 32.94,14.35 32.94,30.55 0,18.87 -12.22,30.56 -32.94,30.56zm174.82 22.85c31.35,0 52.61,-14.88 67.48,-35.07l-18.86 -10.36c-10.1,15.14 -28.43,25.77 -48.62,25.77 -38.79,0 -68.28,-30.02 -68.28,-72 0,-42.24 29.49,-72 68.28,-72 20.19,0 38.52,10.9 48.62,25.77l18.6 -10.36c-14.08,-19.93 -35.87,-35.07 -67.22,-35.07 -51.01,0 -91.13,37.2 -91.13,91.66 0,54.46 40.12,91.66 91.13,91.66zm156.22 -3.19c55,0 90.87,-37.99 90.87,-88.47 0,-50.22 -35.87,-88.74 -90.87,-88.74l-60.57 0 0 177.21 60.57 0zm0 -19.66l-38.52 0 0 -137.89 38.52 0c43.84,0 68.02,30.82 68.02,69.08 0,37.99 -24.98,68.81 -68.02,68.81zm241.5 19.66l0 -19.66 -94.05 0 0 -61.11 92.19 0 0 -19.66 -92.19 0 0 -57.12 94.05 0 0 -19.66 -116.1 0 0 177.21 116.1 0zm57.12 0l0 -80.77 92.19 0 0 -19.66 -92.19 0 0 -57.12 94.05 0 0 -19.66 -116.1 0 0 177.21 22.05 0zm208.03 3.45c28.96,0 53.14,-12.22 69.61,-30.56l0 -64.03 -82.89 0 0 19.66 60.84 0 0 36.13c-8.77,8.77 -26.3,19.13 -47.56,19.13 -38.79,0 -68.28,-30.29 -68.28,-72.26 0,-42.24 29.49,-72 68.28,-72 21.25,0 40.12,10.1 51.28,24.45l17.54 -10.9c-15.67,-19.39 -37.46,-33.21 -68.81,-33.21 -50.48,0 -91.13,36.67 -91.13,91.66 0,54.99 40.65,91.93 91.13,91.93zm253.2 -3.45l0 -177.21 -22.05 0 0 76.25 -103.62 0 0 -76.25 -22.05 0 0 177.21 22.05 0 0 -81.3 103.62 0 0 81.3 22.05 0zm63.5 0l0 -177.21 -22.05 0 0 177.21 22.05 0zm69.88 3.19c31.62,0 56.32,-18.07 56.32,-56.59l0 -123.81 -22.05 0 0 123.55c0,22.05 -13.82,37.2 -35.6,37.2 -15.41,0 -25.77,-8.24 -33.48,-17.54l-11.43 16.74c12.22,14.35 27.37,20.46 46.23,20.46zm232.21 -3.19l-80.23 -92.99 73.86 -84.22 -27.63 0 -78.38 91.66 0 -91.66 -22.05 0 0 177.21 22.05 0 0 -59.51 17.8 -20.19 67.22 79.7 27.36 0zm129.66 0l0 -19.66 -82.36 0 0 -157.55 -22.05 0 0 177.21 104.41 0zm204.58 0l0 -177.21 -31.62 0 -55.26 133.37 -55 -133.37 -31.62 0 0 177.21 22.05 0 0 -145.86 60.04 145.86 9.03 0 60.31 -145.86 0 145.86 22.05 0zm188.1 0l0 -177.21 -22.05 0 0 138.42 -102.02 -138.42 -22.58 0 0 177.21 22.05 0 0 -141.34 103.35 141.34 21.25 0zm-2149.11 326.79c52.34,0 87.94,-39.32 87.94,-91.66 0,-52.34 -35.6,-91.66 -87.94,-91.66 -52.61,0 -87.94,39.32 -87.94,91.66 0,52.34 35.33,91.66 87.94,91.66zm0 -19.66c-39.85,0 -65.09,-30.82 -65.09,-72 0,-41.45 25.24,-72 65.09,-72 39.59,0 65.09,30.56 65.09,72 0,41.18 -25.51,72 -65.09,72zm144.53 16.47l0 -70.41 49.15 0c35.07,0 55.53,-24.44 55.53,-53.4 0,-28.96 -19.93,-53.4 -55.53,-53.4l-71.2 0 0 177.21 22.05 0zm46.49 -90.07l-46.49 0 0 -67.48 46.49 0c20.99,0 35.34,13.81 35.34,33.74 0,19.93 -14.35,33.74 -35.34,33.74zm168.18 93.25c18.33,0 34.54,-4.78 47.82,-13.28l17.27 18.33 15.41 -13.29 -17.01 -18.07c15.41,-16.2 24.44,-39.06 24.44,-65.36 0,-52.34 -35.6,-91.66 -87.94,-91.66 -52.61,0 -87.94,39.32 -87.94,91.66 0,52.34 35.33,91.66 87.94,91.66zm0 -19.66c-39.85,0 -65.09,-30.82 -65.09,-72 0,-41.45 25.24,-72 65.09,-72 39.59,0 65.09,30.56 65.09,72 0,19.66 -5.85,36.93 -16.21,49.68l-24.97 -27.1 -15.41 13.02 25.24 27.36c-9.56,5.85 -20.99,9.03 -33.74,9.03zm251.07 16.47l-47.82 -72.27c24.18,-2.12 45.96,-19.66 45.96,-51.54 0,-32.68 -23.11,-53.4 -55.53,-53.4l-71.2 0 0 177.21 22.05 0 0 -70.41 35.34 0 45.17 70.41 26.04 0zm-60.05 -89.8l-46.49 0 0 -67.75 46.49 0c20.99,0 35.34,13.81 35.34,33.74 0,19.93 -14.35,34.01 -35.34,34.01zm150.38 92.99c47.82,0 65.36,-26.3 65.36,-52.07 0,-66.16 -104.95,-43.31 -104.95,-83.16 0,-16.74 15.14,-28.16 36.4,-28.16 19.39,0 37.99,6.64 51.28,21.25l13.28 -16.2c-14.88,-15.68 -35.87,-24.71 -62.97,-24.71 -34.81,0 -60.84,19.93 -60.84,49.15 0,63.23 104.95,37.99 104.95,83.69 0,13.55 -10.1,30.56 -41.71,30.56 -24.98,0 -44.11,-12.22 -55.79,-25.24l-13.02 16.74c14.61,16.47 37.2,28.16 68.02,28.16zm162.6 -3.19l0 -157.55 56.32 0 0 -19.66 -134.44 0 0 19.66 56.06 0 0 157.55 22.05 0zm157.82 3.19c48.09,0 72.27,-28.16 72.27,-72.27l0 -108.13 -22.05 0 0 107.87c0,32.42 -17.53,52.87 -50.21,52.87 -32.68,0 -50.22,-20.46 -50.22,-52.87l0 -107.87 -22.05 0 0 108.4c0,43.57 24.18,72 72.27,72zm193.95 -3.19l71.47 -177.21 -25.24 0 -59.78 153.03 -59.78 -153.03 -25.24 0 71.2 177.21 27.37 0zm253.99 0l50.48 -177.21 -24.44 0 -39.06 147.72 -40.65 -147.72 -18.33 0 -40.65 147.72 -39.32 -147.72 -24.44 0 50.48 177.21 23.91 0 39.05 -142.94 39.06 142.94 23.91 0zm224.24 0l-68.81 -91.13 64.83 -86.08 -26.83 0 -52.34 70.94 -52.61 -70.94 -26.83 0 65.09 86.35 -69.08 90.86 26.83 0 56.59 -75.45 56.59 75.45 26.57 0zm97.77 0l0 -74.92 69.61 -102.29 -25.77 0 -55 82.36 -55 -82.36 -25.77 0 69.88 102.29 0 74.92 22.05 0zm214.4 0l0 -19.66 -101.49 0 99.63 -139.22 0 -18.33 -127.79 0 0 19.66 99.63 0 -99.63 139.22 0 18.33 129.65 0zm-1986.78 323.6l0 -88.21c0,-31.09 -22.58,-43.31 -49.68,-43.31 -20.99,0 -37.46,6.91 -51.28,21.25l9.3 13.82c11.43,-12.22 23.91,-17.8 39.32,-17.8 18.6,0 32.41,9.83 32.41,27.1l0 23.11c-10.36,-11.96 -24.98,-17.54 -42.51,-17.54 -21.78,0 -44.9,13.55 -44.9,42.24 0,27.89 23.11,42.51 44.9,42.51 17.27,0 31.88,-6.11 42.51,-17.8l0 14.61 19.93 0zm-55.26 -11.16c-18.6,0 -31.62,-11.69 -31.62,-27.9 0,-16.47 13.02,-28.16 31.62,-28.16 14.08,0 27.63,5.31 35.34,15.94l0 24.18c-7.71,10.63 -21.25,15.94 -35.34,15.94zm115.04 -23.65l0 -58.19c6.91,-11.16 22.58,-20.72 38.26,-20.72 26.04,0 41.44,21.26 41.44,49.68 0,28.43 -15.41,49.41 -41.44,49.41 -15.68,0 -31.35,-9.03 -38.26,-20.19zm0 34.8l0 -19.13c9.56,13.02 25.24,22.32 43.31,22.32 33.48,0 57.12,-25.51 57.12,-67.22 0,-40.92 -23.65,-67.48 -57.12,-67.48 -17.54,0 -32.94,8.5 -43.31,22.58l0 -68.28 -19.93 0 0 177.21 19.93 0zm189.43 3.19c23.38,0 37.2,-9.56 47.02,-22.32l-13.28 -12.22c-8.5,11.42 -19.4,16.74 -32.68,16.74 -27.36,0 -44.37,-21.25 -44.37,-49.68 0,-28.43 17.01,-49.42 44.37,-49.42 13.28,0 24.18,5.05 32.68,16.74l13.28 -12.22c-9.83,-12.75 -23.65,-22.32 -47.02,-22.32 -38.26,0 -64.03,29.22 -64.03,67.22 0,38.26 25.77,67.48 64.03,67.48zm187.83 -3.19l0 -177.21 -19.92 0 0 68.28c-10.36,-14.08 -26.04,-22.58 -43.31,-22.58 -33.74,0 -57.12,26.57 -57.12,67.48 0,41.71 23.65,67.22 57.12,67.22 18.07,0 33.74,-9.3 43.31,-22.32l0 19.13 19.92 0zm-58.45 -14.61c-25.77,0 -41.18,-20.99 -41.18,-49.41 0,-28.43 15.41,-49.68 41.18,-49.68 15.94,0 31.35,9.56 38.53,20.72l0 58.19c-7.17,11.16 -22.58,20.19 -38.53,20.19zm156.22 17.8c20.99,0 38.26,-6.91 51.01,-19.66l-9.56 -13.02c-10.1,10.36 -24.98,16.21 -39.59,16.21 -27.63,0 -44.63,-20.19 -46.23,-44.37l103.88 0 0 -5.05c0,-38.52 -22.85,-68.81 -61.64,-68.81 -36.67,0 -63.23,30.02 -63.23,67.22 0,40.12 27.37,67.48 65.36,67.48zm39.85 -75.45l-84.22 0c1.06,-19.66 14.61,-42.77 41.98,-42.77 29.22,0 41.98,23.65 42.24,42.77zm77.31 72.27l0 -110.79 26.04 0 0 -17.54 -26.04 0 0 -9.83c0,-16.2 7.17,-25.24 20.19,-25.24 6.64,0 11.69,2.66 15.94,6.38l8.24 -13.02c-7.97,-7.44 -17.01,-9.83 -27.1,-9.83 -22.85,0 -37.2,15.41 -37.2,41.71l0 9.83 -21.25 0 0 17.54 21.25 0 0 110.79 19.93 0zm101.22 52.07c31.35,0 61.11,-13.28 61.11,-55.79l0 -124.61 -19.93 0 0 19.39c-10.36,-14.08 -25.77,-22.58 -43.04,-22.58 -33.74,0 -57.12,25.51 -57.12,66.69 0,41.44 23.65,66.42 57.12,66.42 18.07,0 33.74,-9.83 43.04,-22.85l0 18.33c0,28.16 -19.93,38.52 -41.18,38.52 -18.33,0 -31.09,-4.78 -41.71,-17.54l-10.1 14.88c15.14,14.88 30.02,19.13 51.81,19.13zm2.92 -68.01c-25.77,0 -41.18,-20.72 -41.18,-48.88 0,-28.43 15.41,-48.89 41.18,-48.89 15.94,0 31.35,9.56 38.26,20.72l0 56.06c-6.91,11.16 -22.32,20.99 -38.26,20.99zm204.84 15.94l0 -90.6c0,-27.9 -14.08,-40.91 -40.91,-40.91 -19.4,0 -36.93,11.16 -45.96,21.78l0 -67.48 -19.93 0 0 177.21 19.93 0 0 -93.79c7.7,-10.36 22.58,-19.93 37.99,-19.93 17.27,0 28.96,6.64 28.96,29.23l0 84.49 19.93 0zm49.68 -146.66c7.44,0 13.55,-5.85 13.55,-13.28 0,-7.44 -6.11,-13.55 -13.55,-13.55 -7.17,0 -13.28,6.11 -13.28,13.55 0,7.44 6.11,13.28 13.28,13.28zm10.1 146.66l0 -128.32 -19.93 0 0 128.32 19.93 0zm49.68 -146.66c7.44,0 13.55,-5.85 13.55,-13.28 0,-7.44 -6.11,-13.55 -13.55,-13.55 -7.17,0 -13.28,6.11 -13.28,13.55 0,7.44 6.11,13.28 13.28,13.28zm-27.89 198.73c24.44,0 37.99,-14.35 37.99,-39.59l0 -140.81 -19.93 0 0 140.81c0,16.21 -8.77,23.11 -20.72,23.11 -7.97,0 -13.82,-3.72 -18.33,-8.24l-7.17 15.14c8.24,6.38 15.14,9.56 28.16,9.56zm190.76 -52.07l-57.12 -70.14 56.86 -58.18 -25.24 0 -67.48 68.28 0 -117.17 -19.93 0 0 177.21 19.93 0 0 -36.67 21.25 -20.99 46.23 57.65 25.5 0zm43.58 0l0 -177.21 -19.93 0 0 177.21 19.93 0zm214.67 0l0 -92.72c0,-25.77 -12.49,-38.79 -35.86,-38.79 -18.6,0 -35.87,12.22 -43.04,23.91 -3.72,-13.29 -14.88,-23.91 -34.54,-23.91 -18.86,0 -36.13,13.55 -41.44,21.78l0 -18.6 -19.93 0 0 128.32 19.93 0 0 -93.79c6.91,-10.36 20.72,-19.93 33.74,-19.93 16.74,0 23.65,10.36 23.65,26.57l0 87.14 19.93 0 0 -94.05c6.64,-10.1 20.72,-19.66 34.01,-19.66 16.47,0 23.65,10.36 23.65,26.57l0 87.14 19.92 0zm146.39 0l0 -90.07c0,-27.9 -14.08,-41.45 -40.92,-41.45 -19.13,0 -36.67,11.16 -45.7,21.78l0 -18.6 -19.93 0 0 128.32 19.93 0 0 -93.79c7.44,-10.36 22.32,-19.93 37.99,-19.93 17.27,0 28.69,7.17 28.69,29.76l0 83.96 19.93 0zm95.91 3.19c39.06,0 63.5,-30.29 63.5,-67.48 0,-37.2 -24.44,-67.22 -63.5,-67.22 -39.06,0 -63.5,30.02 -63.5,67.22 0,37.2 24.44,67.48 63.5,67.48zm0 -17.8c-27.36,0 -42.77,-23.38 -42.77,-49.68 0,-26.04 15.41,-49.42 42.77,-49.42 27.37,0 42.51,23.38 42.51,49.42 0,26.3 -15.14,49.68 -42.51,49.68zm159.14 17.8c33.74,0 57.12,-26.04 57.12,-67.48 0,-41.71 -23.38,-67.22 -57.12,-67.22 -18.07,0 -34.01,9.3 -43.31,22.32l0 -19.13 -19.93 0 0 177.21 19.93 0 0 -68.28c10.36,14.35 25.77,22.58 43.31,22.58zm-5.05 -17.8c-15.68,0 -31.35,-9.56 -38.26,-20.72l0 -57.92c6.91,-11.16 22.58,-20.46 38.26,-20.46 25.77,0 41.18,20.99 41.18,49.42 0,28.43 -15.41,49.68 -41.18,49.68zm147.45 0c-25.77,0 -40.91,-21.25 -40.91,-49.68 0,-28.43 15.14,-49.42 40.91,-49.42 15.94,0 31.62,9.3 38.26,20.46l0 57.92c-6.64,11.16 -22.32,20.72 -38.26,20.72zm-4.78 17.8c17.27,0 32.68,-8.24 43.04,-22.58l0 68.28 19.93 0 0 -177.21 -19.93 0 0 19.13c-9.03,-13.02 -24.98,-22.32 -43.04,-22.32 -33.74,0 -57.12,25.51 -57.12,67.22 0,41.45 23.38,67.48 57.12,67.48zm123.01 -3.19l0 -90.86c5.84,-10.36 22.58,-20.46 34.8,-20.46 3.19,0 5.58,0.27 7.97,0.8l0 -20.46c-17.54,0 -32.41,9.83 -42.77,23.38l0 -20.72 -19.93 0 0 128.32 19.93 0zm108.4 3.19c33.21,0 50.48,-17.27 50.48,-38.79 0,-49.95 -79.44,-31.35 -79.44,-59.51 0,-11.43 10.89,-20.19 28.43,-20.19 16.47,0 30.56,6.91 38.26,16.21l9.3 -13.82c-10.36,-10.36 -25.77,-18.6 -47.56,-18.6 -30.55,0 -47.82,17 -47.82,36.93 0,47.56 79.44,28.43 79.44,59.51 0,12.75 -10.63,22.05 -30.29,22.05 -17.54,0 -33.74,-8.5 -42.24,-18.33l-10.36 14.34c13.02,13.82 30.82,20.19 51.81,20.19zm-2329.77 323.6c11.69,0 18.86,-3.45 23.91,-8.24l-5.85 -14.88c-2.65,2.92 -7.97,5.31 -13.55,5.31 -8.77,0 -13.02,-6.91 -13.02,-16.47l0 -79.7 26.04 0 0 -17.54 -26.04 0 0 -35.07 -19.93 0 0 35.07 -21.25 0 0 17.54 21.25 0 0 83.96c0,19.13 9.56,30.02 28.43,30.02zm152.24 -3.19l0 -128.32 -19.93 0 0 94.32c-7.44,10.36 -22.32,19.39 -37.99,19.39 -17.27,0 -28.69,-6.64 -28.69,-29.22l0 -84.49 -19.93 0 0 90.6c0,27.89 14.08,40.91 40.91,40.91 19.13,0 35.87,-10.1 45.7,-21.25l0 18.07 19.93 0zm95.91 0l53.4 -128.32 -21.79 0 -42.51 105.21 -42.77 -105.21 -21.52 0 53.4 128.32 21.78 0zm205.11 0l40.91 -128.32 -20.72 0 -31.35 102.29 -33.74 -102.29 -17 0 -33.74 102.29 -31.35 -102.29 -20.72 0 40.91 128.32 19.93 0 33.48 -103.09 33.48 103.09 19.93 0zm170.3 0l-49.42 -65.89 46.5 -62.43 -23.11 0 -35.6 48.88 -35.6 -48.88 -23.11 0 46.49 62.43 -49.15 65.89 22.85 0 38.53 -52.61 38.52 52.61 23.11 0zm15.67 50.22c3.72,1.06 10.36,1.86 14.61,1.86 17.01,-0.26 30.02,-7.44 37.73,-26.04l64.3 -154.36 -21.79 0 -42.51 105.21 -42.77 -105.21 -21.52 0 53.67 129.65 -8.5 19.4c-4.52,10.63 -10.36,13.55 -19.13,13.55 -3.19,0 -7.97,-0.8 -10.89,-2.13l-3.19 18.07zm229.02 -50.22l0 -17.27 -72.27 0 71.21 -95.91 0 -15.14 -96.71 0 0 17.54 70.67 0 -70.67 95.38 0 15.41 97.77 0zm83.16 0l0 -177.21 -19.4 0 -44.37 45.7 13.28 13.55 28.43 -30.02 0 147.98 22.05 0zm156.75 0l0 -19.66 -86.88 0c49.42,-39.06 86.08,-72 86.08,-108.13 0,-35.33 -30.02,-52.07 -59.51,-52.07 -24.98,0 -48.09,10.1 -61.64,27.9l13.55 14.08c10.36,-13.28 26.83,-22.32 48.09,-22.32 18.33,0 36.93,9.83 36.93,32.41 0,30.56 -34.54,60.04 -98.3,110.26l0 17.54 121.68 0zm90.87 3.19c39.06,0 62.7,-21.52 62.7,-51.01 0,-28.43 -24.71,-42.24 -40.92,-43.57 16.74,-2.92 38.26,-15.67 38.26,-41.18 0,-30.02 -26.04,-47.29 -60.04,-47.29 -27.37,0 -47.82,11.96 -60.58,27.36l12.22 13.82c13.02,-14.08 27.36,-21.52 46.76,-21.52 21.52,0 39.59,10.63 39.59,30.29 0,20.46 -18.86,29.22 -41.18,29.22 -7.17,0 -15.41,0 -18.33,-0.27l0 20.19c2.66,-0.27 10.89,-0.27 18.33,-0.27 26.04,0 44.1,9.3 44.1,31.35 0,20.46 -15.67,33.21 -41.44,33.21 -20.99,0 -39.06,-9.56 -49.42,-23.38l-13.02 13.82c10.9,15.94 32.95,29.22 62.97,29.22zm192.09 -3.19l0 -44.9 24.98 0 0 -19.4 -24.98 0 0 -112.92 -30.29 0 -75.98 113.98 0 18.33 84.22 0 0 44.9 22.05 0zm-22.05 -64.3l-62.17 0 62.17 -92.46 0 92.46zm135.5 67.48c35.6,0 62.97,-22.32 62.97,-58.45 0,-36.4 -26.83,-56.59 -56.32,-56.59 -17.8,0 -32.95,7.44 -41.45,15.94l0 -61.64 86.35 0 0 -19.66 -108.4 0 0 95.65 16.2 5.58c11.96,-11.69 25.24,-16.74 40.92,-16.74 23.91,0 40.65,14.88 40.65,38.26 0,21.52 -16.74,37.99 -40.92,37.99 -21.78,0 -37.2,-8.5 -48.88,-23.38l-13.55 14.61c13.28,17.54 32.41,28.43 62.43,28.43zm158.61 0c38.79,0 62.17,-27.1 62.17,-57.92 0,-37.73 -26.04,-56.59 -57.92,-56.59 -22.85,0 -42.51,15.41 -50.21,27.63 -0.27,-2.39 -0.27,-4.52 -0.27,-6.91 0,-34.8 15.67,-69.61 49.95,-69.61 18.6,0 28.96,7.44 37.99,18.07l11.16 -16.47c-10.89,-12.49 -26.3,-21.25 -49.15,-21.25 -49.68,0 -72,43.57 -72,91.66 0,48.09 18.86,91.4 68.28,91.4zm-0.8 -19.66c-30.82,0 -42.51,-27.1 -44.64,-49.15 9.83,-15.67 26.83,-26.57 44.37,-26.57 22.85,0 40.92,12.22 40.92,38.26 0,17.01 -13.29,37.46 -40.65,37.46zm132.58 16.47l72.53 -162.07 0 -15.14 -120.88 0 0 19.66 95.38 0 -71.47 157.55 24.45 0zm157.55 3.19c34.8,0 63.5,-18.07 63.5,-48.09 0,-23.65 -20.19,-39.85 -42.24,-46.5 20.46,-5.84 39.59,-19.13 39.59,-42.51 0,-31.88 -31.62,-45.96 -60.84,-45.96 -29.49,0 -60.58,14.08 -60.58,45.96 0,23.38 18.86,36.67 39.32,42.51 -22.05,6.64 -42.24,22.85 -42.24,46.5 0,30.29 28.43,48.09 63.5,48.09zm0 -103.62c-10.63,-1.86 -38.53,-9.03 -38.53,-30.56 0,-18.33 17.01,-29.22 38.53,-29.22 21.25,0 38.52,10.89 38.52,29.22 0,21.52 -27.63,28.69 -38.52,30.56zm0 83.96c-22.05,0 -41.45,-11.69 -41.45,-30.82 0,-23.11 30.55,-32.95 41.45,-34.27 10.89,1.33 41.18,11.16 41.18,34.27 0,19.13 -19.4,30.82 -41.18,30.82zm148.51 19.39c49.68,0 72,-43.57 72,-91.39 0,-48.35 -18.86,-91.66 -68.54,-91.66 -38.53,0 -61.9,27.37 -61.9,57.92 0,37.73 26.3,56.59 58.18,56.59 22.58,0 42.24,-15.41 49.95,-27.63 0.27,2.39 0.27,4.78 0.27,7.17 0,33.47 -14.08,69.34 -49.95,69.34 -18.33,0 -28.96,-7.44 -37.99,-18.07l-11.16 16.47c11.16,12.75 26.57,21.25 49.15,21.25zm4.78 -87.67c-22.85,0 -40.92,-12.22 -40.92,-38.26 0,-16.74 13.55,-37.46 40.65,-37.46 30.82,0 42.51,27.37 44.37,49.42 -9.3,15.67 -26.57,26.3 -44.1,26.3zm162.06 87.94c48.36,0 67.75,-48.62 67.75,-91.66 0,-43.31 -19.39,-91.4 -67.75,-91.4 -48.62,0 -67.75,48.09 -67.75,91.4 0,43.04 19.13,91.66 67.75,91.66zm0 -19.66c-33.74,0 -45.17,-36.67 -45.17,-72 0,-35.34 11.43,-71.74 45.17,-71.74 33.74,0 45.17,36.4 45.17,71.74 0,35.33 -11.43,72 -45.17,72zm-2301.87 388.96l24.71 0 -4.25 -127.53 -16.47 0 -3.99 127.53zm-2.39 -165.25c0,7.97 6.64,14.61 14.61,14.61 7.97,0 14.61,-6.64 14.61,-14.61 0,-7.71 -6.64,-14.61 -14.61,-14.61 -7.97,0 -14.61,6.91 -14.61,14.61zm83.96 66.69l4.25 -127.53 -24.98 0 4.25 127.53 16.47 0zm-8.24 52.34c7.97,0 14.61,-6.91 14.61,-14.61 0,-7.97 -6.64,-14.61 -14.61,-14.61 -7.97,0 -14.61,6.64 -14.61,14.61 0,7.7 6.64,14.61 14.61,14.61zm192.62 15.94c19.66,0 38.79,-6.11 55.26,-16.74l-4.78 -6.91c-14.34,9.03 -30.55,14.88 -49.41,14.88 -44.11,0 -76.25,-32.42 -76.25,-75.19 0,-49.68 44.1,-95.11 95.38,-95.11 45.17,0 75.19,31.62 75.19,75.19 0,36.66 -18.33,48.35 -28.69,48.35 -6.91,0 -12.49,-4.78 -12.49,-13.82 0,-1.59 0.26,-3.99 0.53,-5.58l15.14 -72 -18.07 0 -3.45 16.47c-5.05,-11.43 -16.74,-20.72 -34.01,-20.72 -31.35,0 -62.43,29.76 -62.43,66.69 0,25.77 15.94,43.31 40.65,43.31 17.01,0 32.68,-10.1 41.98,-23.11l0.26 1.59c0.8,11.16 9.3,21.52 24.18,21.52 22.32,0 45.96,-20.99 45.96,-62.7 0,-46.5 -33.48,-84.22 -83.69,-84.22 -55.26,0 -105.48,47.29 -105.48,104.68 0,47.02 35.87,83.43 84.22,83.43zm-2.12 -56.06c-17.01,0 -27.1,-12.49 -27.1,-29.49 0,-25.5 20.46,-50.75 47.03,-50.75 15.67,0 24.44,11.43 27.36,19.66l-7.7 36.66c-7.7,11.16 -21.25,23.91 -39.59,23.91zm196.34 37.46l15.94 -48.09 30.02 0 4.25 -14.08 -29.49 0 17.8 -52.87 28.96 0 3.99 -13.82 -28.43 0 16.21 -48.35 -16.21 0 -15.94 48.35 -29.22 0 15.94 -48.35 -16.47 0 -15.94 48.35 -29.22 0 -4.25 13.82 28.69 0 -17.54 52.87 -28.43 0 -4.52 14.08 28.16 0 -16.2 48.09 16.47 0 15.94 -48.09 29.49 0 -16.2 48.09 16.2 0zm4.52 -62.17l-29.22 0 17.54 -52.87 29.22 0 -17.54 52.87zm144.53 88.74l16.21 0 0 -23.65c40.91,-3.19 56.32,-27.63 56.32,-51.81 0,-34.54 -28.96,-44.9 -56.32,-52.61l0 -57.65c14.88,2.12 28.43,8.77 39.06,20.19l13.28 -16.2c-13.02,-13.55 -30.29,-22.05 -52.34,-24.18l0 -24.71 -16.21 0 0 24.44c-32.15,1.86 -55.26,21.26 -55.26,48.89 0,32.68 28.16,41.71 55.26,49.15l0 64.83c-21.25,-2.39 -37.46,-13.28 -47.82,-24.97l-13.02 16.74c13.28,15.14 33.74,26.3 60.84,27.9l0 23.65zm49.68 -73.59c0,12.49 -8.24,27.63 -33.48,30.29l0 -60.31c18.6,5.58 33.48,12.75 33.48,30.02zm-82.1 -85.02c0,-15.67 13.28,-26.57 32.41,-27.89l0 54.2c-18.07,-5.31 -32.41,-11.42 -32.41,-26.3zm168.71 39.59c25.51,0 43.04,-18.6 43.04,-43.31 0,-24.97 -17.54,-44.1 -43.04,-44.1 -25.24,0 -42.51,19.13 -42.51,44.1 0,24.71 17.27,43.31 42.51,43.31zm-2.39 92.46l113.45 -177.21 -14.61 0 -113.18 177.21 14.35 0zm94.85 3.19c25.24,0 42.77,-18.6 42.77,-43.44 0,-25.11 -17.53,-44.23 -42.77,-44.23 -25.24,0 -42.51,19.13 -42.51,44.23 0,24.84 17.27,43.44 42.51,43.44zm-92.46 -108.93c-15.67,0 -26.57,-13.28 -26.57,-30.02 0,-17.54 10.89,-30.55 26.57,-30.55 15.94,0 27.1,13.02 27.1,30.55 0,16.74 -11.16,30.02 -27.1,30.02zm92.46 95.65c-15.94,-0.04 -26.83,-13.37 -26.83,-30.2 0,-17.58 10.9,-30.64 26.83,-30.64 15.94,0 27.1,13.06 27.1,30.64 0,16.83 -11.16,30.16 -27.1,30.16l0 0.04zm160.74 -78.38l-44.64 -88.74 -15.14 0 -44.9 88.74 16.47 0 35.87 -74.13 35.86 74.13 16.47 0zm167.91 88.47c-13.02,-11.96 -24.18,-22.58 -34.54,-33.48 10.63,-14.88 18.07,-31.62 24.18,-45.7l-17.27 -7.44c-3.19,9.83 -9.3,25.77 -19.13,40.38 -6.91,-7.44 -13.82,-15.14 -20.99,-23.65 -5.85,-6.64 -13.28,-15.41 -20.46,-25.24 22.58,-11.69 45.17,-23.38 45.17,-49.95 0,-22.32 -17.01,-34.8 -40.12,-34.8 -24.97,0 -44.63,17.54 -44.63,41.18 0,12.49 5.58,26.3 13.55,39.85 -20.46,10.89 -39.06,24.97 -39.06,52.6 0,32.95 24.71,49.42 55.26,49.42 21.52,0 37.99,-8.77 51.01,-21.79 7.17,7.44 14.08,14.08 19.39,18.6l27.63 0zm-96.18 -13.28c-18.6,0 -35.6,-12.22 -35.6,-34.27 0,-18.33 11.42,-29.22 26.04,-38.26 7.17,10.1 14.88,19.66 22.32,28.16 5.05,6.11 14.35,16.2 24.44,26.83 -10.1,10.1 -22.58,17.54 -37.2,17.54zm-10.89 -125.14c0,-15.14 11.16,-25.77 24.71,-25.77 11.96,0 20.99,6.91 20.99,19.93 0,17.54 -16.21,27.1 -35.07,36.4 -6.11,-10.36 -10.63,-21.25 -10.63,-30.55zm165.78 35.07l-1.59 -30.55 25.51 16.74 6.11 -10.63 -27.1 -13.81 27.1 -13.82 -6.11 -10.36 -25.51 16.47 1.59 -30.55 -12.22 0 1.33 30.55 -25.51 -16.47 -5.84 10.36 27.1 13.82 -27.1 13.81 5.84 10.63 25.51 -16.74 -1.33 30.55 12.22 0zm100.16 146.92c-17.01,-33.48 -27.63,-64.03 -27.63,-108.13 0,-44.37 10.63,-74.65 27.63,-108.4l-11.96 -9.03c-23.91,32.95 -37.46,74.66 -37.46,117.43 0,42.77 13.55,84.76 37.46,117.43l11.96 -9.3zm21.25 9.3c24.18,-32.68 37.73,-74.66 37.73,-117.43 0,-42.77 -13.55,-84.49 -37.73,-117.43l-11.96 9.03c17.27,33.74 27.9,64.03 27.9,108.4 0,44.11 -10.63,74.66 -27.9,108.13l11.96 9.3z"/>
 </g>
</svg>
