<?xml version="1.0" encoding="UTF-8"?>
<!DOCTYPE svg PUBLIC "-//W3C//DTD SVG 1.1//EN" "http://www.w3.org/Graphics/SVG/1.1/DTD/svg11.dtd">
<!-- Creator: CorelDRAW 2018 (64 Bit) -->
<svg xmlns="http://www.w3.org/2000/svg" xml:space="preserve" width="19.1373in" height="3.68233in" version="1.1" style="shape-rendering:geometricPrecision; text-rendering:geometricPrecision; image-rendering:optimizeQuality; fill-rule:evenodd; clip-rule:evenodd"
viewBox="0 0 19057.19 3666.92"
 xmlns:xlink="http://www.w3.org/1999/xlink">
 <defs>
  <style type="text/css">
   <![CDATA[
    .str0 {stroke:white;stroke-width:2.99;stroke-miterlimit:2.61313}
    .fil1 {fill:none}
    .fil5 {fill:#174824}
    .fil3 {fill:white}
    .fil4 {fill:#174824;fill-rule:nonzero}
    .fil2 {fill:white;fill-rule:nonzero}
    .fil0 {fill:#89906F;fill-opacity:0.501961}
   ]]>
  </style>
 </defs>
 <g id="Capa_x0020_1">
  <metadata id="CorelCorpID_0Corel-Layer"/>
  <g id="_2025684906320">
   <polygon class="fil0" points="-0,0 19057.19,0 19057.19,3666.92 -0,3666.92 "/>
   <line class="fil1 str0" x1="6733.15" y1="452.78" x2="6733.15" y2= "3175.72" />
   <line class="fil1 str0" x1="12234.14" y1="452.78" x2="12234.14" y2= "3175.72" />
   <path class="fil2" d="M1161.73 1838.76l0 -215.32c-53.71,-10.89 -93.55,-32.42 -118.8,-65.83 -26.24,-33.41 -43.56,-68.31 -51.48,-104.44 63.11,113.85 181.16,130.43 245.75,130.43l24.01 -2.23c-46.52,-42.57 -37.86,-92.81 -88.6,-192.06 186.36,0 247.99,123.99 247.99,215.32 0,92.07 -64.59,210.36 -258.87,234.13zm-3.47 417.02c22.27,0 31.18,-15.84 31.18,-32.67 0,-13.61 -7.43,-28.21 -22.52,-43.56 -5.19,-2.72 -5.19,-8.66 -5.19,-26.73l0 -235.61c36.38,6.43 71.03,9.41 103.7,9.41 274.71,0 387.32,-188.59 387.32,-332.13 0,-60.14 -18.31,-114.59 -55.19,-162.36 -74.74,-97.26 -229.92,-155.17 -474.19,-155.17l-204.43 0 0 875.87c0,17.32 -2.23,22.52 -7.42,26.73 -13.61,14.6 -21.04,29.2 -21.04,42.82 0,16.09 9.65,33.41 31.92,33.41l235.86 0zm775.63 95.78c22.52,0 31.92,-17.57 31.92,-33.41 0,-13.86 -7.18,-28.22 -21.04,-42.82 -5.69,-4.95 -7.17,-10.89 -7.17,-28.96l0 -594.47c-52.97,-10.89 -92.07,-32.67 -118.3,-66.08 -26.73,-33.41 -44.05,-68.06 -52.22,-104.44 66.08,117.56 187.1,130.68 247.99,130.68l24.01 -2.23c-47.77,-42.81 -35.39,-87.86 -89.1,-192.3 -34.9,-65.09 -115.33,-104.94 -255.41,-112.36l0 991.94c0,28.96 25.49,54.45 54.45,54.45l184.88 0zm252.44 -92.81c99.24,0 127.46,-58.9 184.13,-106.67l0 48.51c0,26.23 20.3,54.45 54.2,54.45l183.64 0c23.02,0 31.92,-15.84 31.92,-32.67 0,-13.61 -7.43,-28.21 -21.03,-43.31 -5.94,-2.97 -5.94,-8.91 -5.94,-29.2l0 -304.41c0,-216.06 -114.59,-311.84 -308.87,-311.84 -128.94,0 -196.51,39.1 -223.24,99.24 -37.86,86.37 -33.41,142.31 -74.74,182.15l24.01 1.49c72.51,0 273.23,-31.92 273.23,-251.7 58.66,8.66 66.82,35.64 66.82,98.01l0 271.75c0,69.05 -40.59,195.02 -91.32,195.02 -50.98,-10.15 -55.19,-62.37 -55.19,-118.79 2.23,-37.87 7.92,-69.55 18.07,-95.04 33.41,-84.15 68.81,-113.84 68.81,-177.7l-1.98 -24.5c-16.83,28.22 -38.61,52.22 -63.85,71.77 -86.37,61.63 -84.89,48.51 -164.58,106.42 -55.19,40.59 -89.35,95.78 -89.35,182.89 2.97,98.5 64.59,184.13 195.27,184.13zm1152.56 -3.71c22.52,0 31.18,-16.58 31.18,-33.41 0,-13.61 -6.44,-28.22 -20.3,-42.57 -4.95,-0.74 -7.17,-7.43 -7.17,-19.8l0 -369.75c0,-36.87 -4.21,-75.24 -12.38,-115.33 -15.84,-77.46 -60.88,-136.12 -156.41,-142.06 -27.72,0 -56.68,7.42 -87.11,21.03 -65.34,32.67 -100.73,75.49 -142.8,113.1l0 -132.66c-121.02,0 -186.36,36.38 -214.57,88.6 -46.53,84.64 -31.93,147.01 -81.43,192.79l33.41 2.97c104.44,0 199.48,-66.08 237.09,-132.16 -28.95,106.67 -101.47,168.29 -217.54,184.88l0 279.17c0,21.03 -0.74,26.23 -7.18,29.2 -13.86,14.35 -21.03,28.96 -21.03,42.57 0,16.83 8.66,33.41 31.92,33.41l184.88 0c28.95,0 54.45,-25.24 54.45,-54.45l0 -255.16c0,-38.36 1.48,-77.46 4.95,-116.07 5.94,-74.49 28.96,-132.66 92.81,-139.83 49.5,0 58.16,69.55 58.16,119.54l0 395.24c3.47,25.49 21.78,50.74 54.2,50.74l184.88 0zm336.59 95.78c22.27,0 31.68,-16.09 31.68,-32.67 0,-13.86 -7.18,-28.22 -20.79,-43.56 -5.94,-2.72 -5.94,-8.66 -5.94,-28.96l0 -628.63c0,-71.77 10.89,-83.41 67.57,-83.41l0 -90.58 -67.57 0 0 -137.85c-148.49,8.66 -223.24,52.22 -256.65,113.1 -47.76,87.12 -39.84,147.26 -87.86,191.56l24.01 1.49c18.07,0 43.56,-2.97 74.74,-9.65 61.62,-11.39 129.68,-44.8 173.24,-121.02 -7.92,36.38 -25.24,71.03 -51.48,104.44 -26.73,33.41 -65.83,55.19 -118.8,66.08l0 645.21c0,26.23 20.3,54.45 54.2,54.45l183.64 0zm247.99 -92.07c99.24,0 127.46,-58.9 184.13,-106.67l0 48.51c0,26.23 20.3,54.45 54.2,54.45l183.64 0c23.02,0 31.92,-15.84 31.92,-32.67 0,-13.61 -7.43,-28.21 -21.04,-43.31 -5.94,-2.97 -5.94,-8.91 -5.94,-29.2l0 -304.41c0,-216.06 -114.59,-311.84 -308.87,-311.84 -128.94,0 -196.51,39.1 -223.24,99.24 -37.86,86.37 -33.41,142.31 -74.74,182.15l24.01 1.49c72.51,0 273.23,-31.92 273.23,-251.7 58.66,8.66 66.82,35.64 66.82,98.01l0 271.75c0,69.05 -40.59,195.02 -91.32,195.02 -50.98,-10.15 -55.19,-62.37 -55.19,-118.79 2.23,-37.87 7.92,-69.55 18.07,-95.04 33.41,-84.15 68.8,-113.84 68.8,-177.7l-1.98 -24.5c-16.83,28.22 -38.61,52.22 -63.85,71.77 -86.37,61.63 -84.89,48.51 -164.58,106.42 -55.19,40.59 -89.35,95.78 -89.35,182.89 2.97,98.5 64.59,184.13 195.27,184.13zm747.42 -5.19c124.74,0 280.66,-78.95 280.66,-207.4 0,-46.28 -22.52,-107.16 -77.71,-156.41 -129.68,-105.93 -250.95,-146.51 -250.95,-265.56 0,-30.44 10.89,-54.94 45.04,-57.91 0,226.95 205.91,250.21 272.73,250.21l24.5 -2.23c-23.26,-23.26 -39.1,-56.68 -47.02,-99.99 -20.3,-94.29 -65.34,-180.67 -240.81,-180.67 -121.76,0 -258.87,72.52 -258.87,192.06 0,195.27 318.27,269.02 318.27,409.1 0,59.4 -61.63,81.92 -83.41,87.61 -6.43,-68.06 -26.73,-118.8 -60.88,-152.95 -33.9,-34.16 -71.77,-56.43 -113.1,-68.81 -41.33,-11.63 -76.72,-18.81 -105.18,-21.03 13.86,74.74 45.04,137.6 92.32,187.84 47.02,52.96 115.08,81.92 204.42,86.13zm337.82 -676.39c57.91,0 272.74,-24.01 272.74,-247.99l-1.49 -34.9c-292.29,0 -211.11,200.22 -295.26,281.4l24.01 1.49zm231.41 677.88c23.01,0 32.67,-15.84 32.67,-32.67 0,-13.61 -7.42,-28.21 -21.78,-43.31 -5.2,-4.46 -7.43,-9.65 -7.43,-26.98l0 -640.26c-33.9,57.42 -114.59,104.44 -240.56,140.08l0 500.18 -0.74 1.49c-0.74,15.34 -2.97,23.26 -6.68,25.49 -14.36,15.1 -21.78,29.7 -21.78,43.31 0,16.83 9.65,32.67 32.67,32.67l233.63 0zm250.95 3.71c99.24,0 127.46,-58.9 184.13,-106.67l0 48.51c0,26.23 20.3,54.45 54.2,54.45l183.64 0c23.02,0 31.92,-15.84 31.92,-32.67 0,-13.61 -7.42,-28.21 -21.03,-43.31 -5.94,-2.97 -5.94,-8.91 -5.94,-29.2l0 -304.41c0,-216.06 -114.59,-311.84 -308.87,-311.84 -128.94,0 -196.51,39.1 -223.24,99.24 -37.86,86.37 -33.41,142.31 -74.74,182.15l24.01 1.49c72.51,0 273.23,-31.92 273.23,-251.7 58.66,8.66 66.82,35.64 66.82,98.01l0 271.75c0,69.05 -40.59,195.02 -91.32,195.02 -50.99,-10.15 -55.19,-62.37 -55.19,-118.79 2.23,-37.87 7.92,-69.55 18.07,-95.04 33.41,-84.15 68.8,-113.84 68.8,-177.7l-1.98 -24.5c-16.83,28.22 -38.61,52.22 -63.85,71.77 -86.37,61.63 -84.89,48.51 -164.58,106.42 -55.19,40.59 -89.35,95.78 -89.35,182.89 2.97,98.5 64.59,184.13 195.27,184.13z"/>
   <g>
    <path class="fil3" d="M14151.69 713.3c623.73,0 1129.36,492.91 1129.36,1100.95 0,608.04 -505.63,1100.95 -1129.36,1100.95 -623.73,0 -1129.36,-492.91 -1129.36,-1100.95 0,-608.04 505.63,-1100.95 1129.36,-1100.95zm-100.74 1227.2l0 -383.24c-95.59,-19.38 -166.51,-57.71 -211.44,-117.18 -46.69,-59.47 -77.53,-121.58 -91.63,-185.89 112.33,202.63 322.45,232.15 437.43,232.15l42.73 -3.97c-82.82,-75.77 -67.4,-165.19 -157.7,-341.84 331.7,0 441.39,220.7 441.39,383.25 0,163.87 -114.97,374.43 -460.77,416.72zm-6.16 742.26c39.64,0 55.5,-28.19 55.5,-58.15 0,-24.23 -13.22,-50.21 -40.09,-77.53 -9.25,-4.85 -9.25,-15.42 -9.25,-47.57l0 -419.37c64.76,11.45 126.43,16.74 184.57,16.74 488.97,0 689.4,-335.67 689.4,-591.17 0,-107.04 -32.6,-203.96 -98.24,-288.97 -133.03,-173.12 -409.23,-276.2 -844.01,-276.2l-363.86 0 0 1558.97c0,30.83 -3.97,40.08 -13.22,47.57 -24.23,25.99 -37.45,51.98 -37.45,76.21 0,28.63 17.18,59.47 56.83,59.47l419.81 0z"/>
    <path class="fil4" d="M14027.39 1947.35l0 -357.07c-89.06,-18.06 -155.14,-53.77 -197.01,-109.18 -43.51,-55.41 -72.24,-113.28 -85.37,-173.2 104.66,188.8 300.43,216.3 407.56,216.3l39.81 -3.69c-77.16,-70.59 -62.8,-153.91 -146.93,-318.49 309.05,0 411.25,205.62 411.25,357.07 0,152.68 -107.12,348.86 -429.31,388.27zm-5.75 691.57c36.94,0 51.72,-26.27 51.72,-54.18 0,-22.57 -12.31,-46.79 -37.35,-72.24 -8.62,-4.51 -8.62,-14.36 -8.62,-44.33l0 -390.73c60.33,10.67 117.79,15.6 171.97,15.6 455.58,0 642.32,-312.75 642.32,-550.8 0,-99.73 -30.37,-190.03 -91.52,-269.24 -123.95,-161.3 -381.29,-257.34 -786.38,-257.34l-339.01 0 0 1452.51c0,28.73 -3.7,37.35 -12.31,44.33 -22.57,24.22 -34.88,48.43 -34.88,71 0,26.68 16,55.41 52.94,55.41l391.14 0z"/>
   </g>
   <path class="fil4" d="M8079.38 1963.18l0 -442.97c-110.49,-22.4 -192.46,-66.7 -244.4,-135.43 -53.97,-68.73 -89.61,-140.53 -105.91,-214.86 129.84,234.21 372.71,268.33 505.6,268.33l49.39 -4.59c-95.72,-87.57 -77.9,-190.93 -182.28,-395.11 383.4,0 510.18,255.09 510.18,442.97 0,189.4 -132.89,432.78 -532.58,481.67zm-7.13 857.93c45.82,0 64.15,-32.59 64.15,-67.21 0,-28 -15.27,-58.04 -46.33,-89.61 -10.69,-5.6 -10.69,-17.82 -10.69,-54.99l0 -484.72c74.85,13.24 146.13,19.35 213.34,19.35 565.17,0 796.84,-387.98 796.84,-683.29 0,-123.73 -37.68,-235.74 -113.54,-334.01 -153.77,-200.1 -473.01,-319.24 -975.55,-319.24l-420.57 0 0 1801.92c0,35.64 -4.58,46.33 -15.27,54.99 -28,30.04 -43.28,60.08 -43.28,88.08 0,33.1 19.86,68.74 65.68,68.74l485.23 0z"/>
   <path class="fil2" d="M10435.77 1963.18l0 -442.97c-110.48,-22.4 -192.46,-66.7 -244.39,-135.43 -53.97,-68.74 -89.61,-140.53 -105.91,-214.86 129.84,234.21 372.71,268.33 505.6,268.33l49.39 -4.58c-95.72,-87.58 -77.9,-190.93 -182.28,-395.11 383.4,0 510.18,255.09 510.18,442.97 0,189.41 -132.89,432.79 -532.59,481.67zm-7.12 857.93c45.82,0 64.15,-32.59 64.15,-67.21 0,-28 -15.27,-58.04 -46.33,-89.61 -10.7,-5.6 -10.7,-17.82 -10.7,-54.99l0 -484.72c74.85,13.24 146.13,19.35 213.34,19.35 565.17,0 796.84,-387.98 796.84,-683.29 0,-123.73 -37.68,-235.74 -113.54,-334.01 -153.76,-200.1 -473.01,-319.25 -975.55,-319.25l-420.57 0 0 1801.92c0,35.64 -4.58,46.33 -15.27,54.99 -28,30.04 -43.28,60.08 -43.28,88.08 0,33.1 19.86,68.74 65.68,68.74l485.23 0z"/>
   <g>
    <path class="fil5" d="M17198.62 713.3c623.73,0 1129.36,492.91 1129.36,1100.95 0,608.04 -505.64,1100.95 -1129.36,1100.95 -623.73,0 -1129.36,-492.91 -1129.36,-1100.95 0,-608.04 505.64,-1100.95 1129.36,-1100.95zm-100.74 1227.2l0 -383.24c-95.59,-19.38 -166.51,-57.71 -211.44,-117.18 -46.69,-59.47 -77.53,-121.58 -91.63,-185.89 112.33,202.63 322.45,232.15 437.43,232.15l42.73 -3.96c-82.82,-75.77 -67.4,-165.2 -157.7,-341.84 331.7,0 441.39,220.69 441.39,383.24 0,163.87 -114.97,374.43 -460.78,416.72zm-6.16 742.26c39.64,0 55.5,-28.19 55.5,-58.15 0,-24.23 -13.22,-50.22 -40.09,-77.53 -9.25,-4.85 -9.25,-15.42 -9.25,-47.57l0 -419.37c64.76,11.46 126.43,16.74 184.57,16.74 488.97,0 689.4,-335.67 689.4,-591.17 0,-107.04 -32.6,-203.95 -98.23,-288.97 -133.04,-173.12 -409.23,-276.2 -844.02,-276.2l-363.86 0 0 1558.97c0,30.83 -3.97,40.08 -13.22,47.57 -24.23,25.99 -37.45,51.98 -37.45,76.21 0,28.63 17.18,59.47 56.83,59.47l419.81 0z"/>
    <path class="fil2" d="M17074.32 1947.35l0 -357.07c-89.06,-18.06 -155.14,-53.77 -197.01,-109.18 -43.51,-55.4 -72.24,-113.28 -85.37,-173.2 104.66,188.8 300.43,216.3 407.56,216.3l39.81 -3.7c-77.16,-70.59 -62.8,-153.91 -146.93,-318.49 309.06,0 411.25,205.62 411.25,357.07 0,152.68 -107.12,348.86 -429.31,388.27zm-5.74 691.57c36.94,0 51.71,-26.27 51.71,-54.18 0,-22.57 -12.31,-46.79 -37.35,-72.24 -8.62,-4.51 -8.62,-14.36 -8.62,-44.33l0 -390.73c60.33,10.67 117.79,15.6 171.97,15.6 455.58,0 642.32,-312.75 642.32,-550.8 0,-99.73 -30.37,-190.03 -91.52,-269.24 -123.95,-161.3 -381.29,-257.34 -786.38,-257.34l-339.01 0 0 1452.51c0,28.73 -3.7,37.35 -12.31,44.33 -22.57,24.22 -34.88,48.43 -34.88,71 0,26.68 16,55.41 52.95,55.41l391.14 0z"/>
   </g>
  </g>
 </g>
</svg>
